<?xml version="1.0" encoding="utf-8"?>
<!-- Generator: Adobe Illustrator 19.0.0, SVG Export Plug-In . SVG Version: 6.00 Build 0)  -->
<svg version="1.1" id="Слой_3" xmlns="http://www.w3.org/2000/svg" xmlns:xlink="http://www.w3.org/1999/xlink" x="0px" y="0px"
	 viewBox="0 0 797.3 343" enable-background="new 0 0 797.3 343" xml:space="preserve">
<g id="XMLID_15_" opacity="0.9">
	<path id="XMLID_112_" d="M397.7,254.1h-42.5v26.8h50.2v20.8h-77.2v-112h77.3v20.8h-50.3v23.6h42.5V254.1z"/>
	<path id="XMLID_114_" d="M508.1,287.8c-4.2,4.6-10.2,8.3-18.2,11.2c-8,2.8-16.8,4.2-26.3,4.2c-14.7,0-26.4-4.5-35.2-13.5
		c-8.8-9-13.5-21.5-14.1-37.5l-0.1-9.7c0-11,1.9-20.7,5.8-28.9c3.9-8.2,9.5-14.6,16.7-19c7.3-4.4,15.7-6.7,25.2-6.7
		c13.9,0,24.8,3.2,32.5,9.6c7.7,6.4,12.2,15.9,13.5,28.6h-26c-0.9-6.3-2.9-10.7-6-13.4c-3.1-2.7-7.4-4-13.1-4
		c-6.8,0-12,2.9-15.7,8.6s-5.6,13.9-5.6,24.6v6.8c0,11.2,1.9,19.6,5.7,25.2c3.8,5.6,9.8,8.4,18,8.4c7,0,12.3-1.6,15.7-4.7v-17.4
		h-18.8v-18.5h45.8V287.8z"/>
	<path id="XMLID_116_" d="M614.4,263.7c-0.4,7.8-2.5,14.7-6.3,20.7c-3.8,6-9.2,10.6-16.2,13.9c-6.9,3.3-14.9,4.9-23.8,4.9
		c-14.7,0-26.3-4.8-34.8-14.4c-8.5-9.6-12.7-23.1-12.7-40.6v-5.5c0-11,1.9-20.6,5.7-28.8c3.8-8.2,9.3-14.6,16.5-19.1
		c7.2-4.5,15.5-6.7,24.9-6.7c13.6,0,24.5,3.6,32.8,10.7c8.3,7.2,12.9,17,14.1,29.6h-26.9c-0.2-6.8-1.9-11.7-5.2-14.7
		c-3.2-3-8.2-4.5-14.8-4.5c-6.7,0-11.6,2.5-14.8,7.5c-3.1,5-4.8,13.1-4.9,24.1v7.9c0,12,1.5,20.5,4.5,25.6c3,5.1,8.2,7.7,15.5,7.7
		c6.2,0,10.9-1.5,14.2-4.4c3.3-2.9,5-7.6,5.2-13.9H614.4z"/>
	<path id="XMLID_118_" d="M629,290c0-3.7,1.3-6.8,3.8-9.1c2.5-2.3,5.7-3.5,9.5-3.5c3.9,0,7,1.2,9.6,3.5c2.5,2.3,3.8,5.4,3.8,9.1
		c0,3.7-1.3,6.7-3.7,9c-2.5,2.3-5.7,3.5-9.6,3.5c-3.9,0-7-1.2-9.5-3.5C630.2,296.7,629,293.7,629,290z"/>
	<path id="XMLID_120_" d="M746.2,257h-43.5v44.6h-27v-112h74.9v20.8h-47.9v25.8h43.5V257z"/>
	<path id="XMLID_122_" d="M790.6,301.6h-26.9v-112h26.9V301.6z"/>
</g>
<g id="XMLID_16_">
	<path id="XMLID_40_" d="M328.1,153.3V91.8H347c8.1,0,14.5,2.5,19.4,7.4c4.9,4.9,7.3,11.3,7.3,19.2v8.4c0,7.9-2.4,14.2-7.3,19.2
		c-4.9,4.9-11.3,7.4-19.4,7.4H328.1z M336.5,98.4v48.4H347c5.7,0,10.2-1.9,13.5-5.6c3.3-3.7,4.9-8.5,4.9-14.4v-8.5
		c0-5.8-1.6-10.6-4.9-14.3c-3.3-3.7-7.8-5.6-13.5-5.6H336.5z"/>
	<path id="XMLID_49_" d="M402.6,154.2c-6.4,0-11.4-2.1-15.2-6.4c-3.8-4.2-5.6-9.7-5.6-16.5v-1.9c0-6.5,1.9-11.9,5.8-16.2
		c3.9-4.3,8.5-6.5,13.8-6.5c6.2,0,10.8,1.9,14,5.6c3.2,3.7,4.7,8.7,4.7,14.9v5.2h-29.7l-0.1,0.2c0.1,4.4,1.2,8,3.3,10.8
		c2.1,2.8,5.1,4.2,9,4.2c2.8,0,5.3-0.4,7.4-1.2c2.1-0.8,4-1.9,5.5-3.3l3.3,5.4c-1.6,1.6-3.8,3-6.5,4
		C409.6,153.7,406.4,154.2,402.6,154.2z M401.3,113.3c-2.8,0-5.2,1.2-7.1,3.5c-2,2.3-3.2,5.3-3.6,8.8l0.1,0.2h21.1v-1.1
		c0-3.3-0.9-6-2.6-8.2C407.3,114.4,404.7,113.3,401.3,113.3z"/>
	<path id="XMLID_52_" d="M455.9,141.2c0-1.8-0.7-3.3-2.1-4.5c-1.4-1.2-4-2.2-7.9-3.1c-5.6-1.2-9.7-2.8-12.5-4.9
		c-2.8-2.1-4.2-4.9-4.2-8.5c0-3.7,1.6-6.9,4.7-9.5c3.2-2.6,7.3-3.9,12.3-3.9c5.3,0,9.6,1.4,12.7,4.1c3.1,2.7,4.6,6.1,4.5,10
		l-0.1,0.3h-7.9c0-2-0.8-3.8-2.5-5.4c-1.7-1.6-3.9-2.4-6.7-2.4c-3,0-5.2,0.6-6.6,1.9c-1.4,1.3-2.2,2.9-2.2,4.7
		c0,1.8,0.6,3.2,1.9,4.3c1.3,1,3.8,2,7.7,2.8c5.8,1.2,10.1,2.9,12.9,5c2.8,2.1,4.2,5,4.2,8.6c0,4.1-1.6,7.3-4.9,9.8
		c-3.3,2.5-7.6,3.8-12.9,3.8c-5.8,0-10.4-1.5-13.8-4.4c-3.4-3-4.9-6.4-4.8-10.4l0.1-0.3h7.9c0.1,2.9,1.2,5.1,3.3,6.5
		c2.1,1.4,4.5,2,7.2,2c3,0,5.3-0.6,7-1.8C455.1,144.7,455.9,143.1,455.9,141.2z"/>
	<path id="XMLID_61_" d="M483.6,95.9h-8.3v-8.5h8.3V95.9z M483.6,153.3h-8.3v-45.7h8.3V153.3z"/>
	<path id="XMLID_64_" d="M494.6,131.3c0-7.4,1.6-13.3,4.8-17.8c3.2-4.5,7.6-6.8,13.3-6.8c2.9,0,5.5,0.6,7.6,1.8c2.2,1.2,4,2.9,5.5,5
		l1-6h6.6v46c0,5.9-1.7,10.4-5.1,13.5c-3.4,3.1-8.3,4.7-14.7,4.7c-2.2,0-4.6-0.3-7.1-0.9c-2.6-0.6-4.8-1.4-6.7-2.5l2.1-6.5
		c1.5,0.8,3.3,1.5,5.4,2c2.1,0.5,4.2,0.8,6.3,0.8c4.1,0,7-0.9,8.9-2.8c1.8-1.8,2.8-4.7,2.8-8.4v-5.2c-1.5,1.9-3.3,3.4-5.4,4.3
		c-2.1,1-4.5,1.5-7.2,1.5c-5.6,0-10-2-13.2-6.1c-3.2-4.1-4.8-9.4-4.8-15.9V131.3z M502.9,132.2c0,4.6,1,8.3,2.9,11.1
		s4.9,4.2,8.9,4.2c2.5,0,4.6-0.6,6.3-1.7c1.7-1.1,3.1-2.8,4.2-4.8v-21c-1.1-1.9-2.5-3.5-4.2-4.6c-1.7-1.1-3.8-1.7-6.2-1.7
		c-4,0-6.9,1.7-8.9,5c-2,3.3-3,7.6-3,12.8V132.2z"/>
	<path id="XMLID_99_" d="M553,107.6l0.6,6.8c1.5-2.4,3.4-4.3,5.7-5.6c2.3-1.3,4.9-2,7.8-2c4.9,0,8.7,1.4,11.5,4.3
		c2.7,2.9,4.1,7.3,4.1,13.4v28.9h-8.3v-28.7c0-4-0.8-6.9-2.4-8.6c-1.6-1.7-4-2.5-7.3-2.5c-2.4,0-4.5,0.6-6.4,1.7
		c-1.8,1.2-3.3,2.7-4.4,4.7v33.3h-8.3v-45.7H553z"/>
	<path id="XMLID_101_" d="M613.8,154.2c-6.4,0-11.4-2.1-15.2-6.4c-3.8-4.2-5.6-9.7-5.6-16.5v-1.9c0-6.5,1.9-11.9,5.8-16.2
		c3.9-4.3,8.5-6.5,13.8-6.5c6.2,0,10.8,1.9,14,5.6c3.2,3.7,4.7,8.7,4.7,14.9v5.2h-29.7l-0.1,0.2c0.1,4.4,1.2,8,3.3,10.8
		c2.1,2.8,5.1,4.2,9,4.2c2.8,0,5.3-0.4,7.4-1.2c2.1-0.8,4-1.9,5.5-3.3l3.3,5.4c-1.6,1.6-3.8,3-6.5,4S617.6,154.2,613.8,154.2z
		 M612.5,113.3c-2.8,0-5.2,1.2-7.1,3.5c-2,2.3-3.2,5.3-3.6,8.8l0.1,0.2h21.1v-1.1c0-3.3-0.9-6-2.6-8.2
		C618.5,114.4,615.9,113.3,612.5,113.3z"/>
	<path id="XMLID_104_" d="M638.6,131.3c0-7.4,1.6-13.3,4.7-17.8c3.1-4.5,7.5-6.8,13.2-6.8c2.7,0,5,0.5,7.1,1.5
		c2.1,1,3.8,2.4,5.3,4.3V87.4h8.3v65.9h-6.8l-1-5.6c-1.5,2.1-3.3,3.8-5.5,4.9c-2.2,1.1-4.7,1.6-7.6,1.6c-5.6,0-9.9-2-13.1-6.1
		c-3.2-4-4.7-9.4-4.7-16V131.3z M647,132.2c0,4.6,0.9,8.3,2.8,11.1c1.9,2.8,4.8,4.2,8.8,4.2c2.5,0,4.6-0.6,6.3-1.7
		c1.7-1.1,3.1-2.7,4.1-4.7v-21.3c-1.1-1.9-2.5-3.4-4.2-4.5c-1.7-1.1-3.8-1.7-6.1-1.7c-4,0-7,1.6-8.9,4.9c-1.9,3.3-2.9,7.6-2.9,12.8
		V132.2z"/>
	<path id="XMLID_107_" d="M750.3,132.2c0,6.6-1.6,11.9-4.8,16c-3.2,4-7.5,6.1-13.1,6.1c-3,0-5.6-0.6-7.9-1.8
		c-2.2-1.2-4.1-2.9-5.5-5.2l-1,6h-6.8V87.4h8.3V113c1.4-2,3.2-3.6,5.3-4.6c2.1-1.1,4.6-1.6,7.5-1.6c5.6,0,10,2.3,13.2,6.8
		c3.2,4.5,4.7,10.4,4.7,17.8V132.2z M742,131.3c0-5.2-1-9.5-2.9-12.8c-1.9-3.3-4.9-5-8.8-5c-2.6,0-4.7,0.6-6.5,1.9
		c-1.8,1.3-3.2,2.9-4.2,5v19.8c1.1,2.3,2.5,4,4.2,5.3s3.9,1.9,6.6,1.9c3.9,0,6.8-1.4,8.7-4.2c1.9-2.8,2.9-6.5,2.9-11.1V131.3z"/>
	<path id="XMLID_110_" d="M774,136.4l1.5,5.7h0.3l11.2-34.5h9.3L777,160.3c-1.2,3.1-2.8,5.7-5,8c-2.2,2.3-5.1,3.4-8.7,3.4
		c-0.7,0-1.5-0.1-2.6-0.2s-1.8-0.3-2.4-0.4l0.8-6.5c-0.2,0,0.3,0,1.5,0.1c1.2,0.1,1.9,0.1,2.2,0.1c1.8,0,3.2-0.8,4.4-2.4
		c1.1-1.6,2.1-3.3,2.8-5.2l2-4.8l-17-44.8h9.3L774,136.4z"/>
</g>
<g id="XMLID_84_" opacity="0.8">
	<path id="XMLID_87_" d="M251.1,93.3l2.2,0.7l-40.2,40.2c-1.7-2.6-3.6-5-5.6-7.2c-0.2-0.2-0.3-0.3-0.4-0.5l42.2-40.4
		c1.3,3.4,1.2,6.4,1.2,6.4l0,0.6L251.1,93.3z"/>
	<path id="XMLID_86_" d="M261.8,85.6l-1.8,1.8c-1.7-2.2-3.7-4.3-5.6-6.1l1.6-1.5C259.6,80.3,261.6,82.2,261.8,85.6z"/>
	<path id="XMLID_85_" d="M281.1,111.9c0,0-13.2,17.8-33.6,17.8c-0.3,0-0.7,0-1,0c0,0,4.5-4.7,4.3-10.5c0,0,15.7-5.8,6.3-24.8l-3.1-1
		l-2.6-0.8c0,0,0.1-3.3-1.4-7c-0.9-2.4-2.5-5-5.2-7l1.7-2.8c0,0,3.5,2.4,7.4,6.1c1.9,1.8,3.9,3.8,5.6,6.1c0.6,0.8,1.1,1.5,1.7,2.3
		C266.3,98.1,273,109,281.1,111.9z"/>
</g>
<g id="XMLID_80_" opacity="0.8">
	<path id="XMLID_83_" d="M85.1,87.3l-1.8-1.8c0.3-3.3,2.3-5.2,5.8-5.8l1.7,1.6C88.8,83,86.8,85.1,85.1,87.3z"/>
	<path id="XMLID_82_" d="M130.1,118.8c-2,1.3-3.7,2.7-4.6,3.4c-0.7-1-2.1-3.2-3.3-5.2l-0.3-0.7l0-0.1l0,0l-0.4-0.9l-1.2-2.8l-0.3,3
		c-0.1,1.8-0.4,3.7-0.8,5.7L91.8,94l2.2-0.7l0.6-0.2l0-0.6c0-0.1,0-3,1.2-6.4L130.1,118.8z"/>
	<path id="XMLID_81_" d="M95.2,85.5c-1.5,3.7-1.4,7-1.4,7l-2.6,0.8l-3.1,1c-9.3,19.1,6.3,24.8,6.3,24.8c-0.3,5.8,4.3,10.5,4.3,10.5
		c-0.3,0-0.7,0-1,0c-20.4,0-33.6-17.8-33.6-17.8c8-2.8,14.8-13.8,19.9-21.7c0.5-0.8,1.1-1.6,1.7-2.3c1.7-2.2,3.7-4.3,5.6-6.1
		c3.9-3.7,7.4-6.1,7.4-6.1l1.7,2.8C97.7,80.5,96.1,83.1,95.2,85.5z"/>
</g>
<g id="XMLID_73_" opacity="0.8">
	<path id="XMLID_79_" d="M140.1,204.2c1,0.9,2,1.8,3,2.6l-16.9,16.3c-2.5-1.5-4.3-3-5.7-4.5l17.5-16.5
		C138.6,202.8,139.4,203.5,140.1,204.2z"/>
	<path id="XMLID_78_" d="M135.7,199.4c0.6,0.7,1.1,1.4,1.7,2l-17.5,16.5c-1.3-1.4-2.5-3.1-3.7-5.3l17.1-16.5
		c0.1,0.1,0.1,0.2,0.2,0.2l0.1,0.1C134.2,197.5,134.9,198.5,135.7,199.4z"/>
	<path id="XMLID_77_" d="M130.2,226.7l-3.2,3.1c0,0-0.1,0-0.2,0c-2.9-1.3-5.6-2.9-8-5c0,0,0,0,0,0c0,0,0,0,0,0
		c-0.1,0-0.1-0.1-0.1-0.1l0,0c0,0-0.1,0-0.1-0.1c-0.8-0.7-1.5-1.4-2.3-2.1c-0.7-0.8-1.5-1.6-2.1-2.4c0,0,0,0-0.1-0.1
		c0,0-0.1-0.1-0.1-0.1l0,0c-2-2.5-3.5-5.3-4.7-8.2c0,0,0-0.1,0-0.1l3.2-3.1l0.4,0.7c0.5,1,1.1,2.2,1.8,3.4c0,0,0,0.1,0.1,0.1
		l0.1,0.2c0,0,0,0,0,0c1.6,2.9,3,4.9,4.7,6.5c1.6,1.7,3.5,3.2,6.3,4.9c0,0,0,0,0,0l0,0c0.1,0,0.1,0.1,0.2,0.1c0,0,0.1,0,0.1,0.1
		c1.1,0.7,2.2,1.3,3.3,1.9L130.2,226.7z"/>
	<path id="XMLID_76_" d="M117.7,225.3L104.1,237c-0.4-0.5-0.9-1.1-1.3-1.5c-0.5-0.5-1-1-1.5-1.4l12.2-13.2
		C114.8,222.5,116.2,224,117.7,225.3z"/>
	<path id="XMLID_75_" d="M105.8,242.4l-2.1,2.1c-0.1-0.2-0.2-0.5-0.4-0.8c-1.2-2.5-2.3-4.1-3.5-5.4c-1.5-1.5-3.4-2.7-5.1-3.6
		c-0.3-0.2-0.6-0.3-0.8-0.5l2.2-2.1c0,0,0.2-0.1,0.2,0c1.5,0.7,2.9,1.6,4.2,2.6c1.1,0.9,2.1,2,3,3.1c0,0,0,0,0,0l0,0
		c1,1.3,1.8,2.8,2.4,4.3C105.9,242.2,105.9,242.3,105.8,242.4z"/>
	<path id="XMLID_74_" d="M99.1,239c1.1,1.1,2,2.5,3,4.5c-1.4,0.9-3.3-0.7-3.4-0.7l-0.2-0.2c-0.1-0.1-0.2-0.1-0.3,0l-0.2,0.2
		c-1.1,1.1-2.8,0.2-3,0.1c-0.2-0.4-0.8-2,0.2-3l0.2-0.2c0.1-0.1,0.1-0.2,0-0.3l-0.2-0.2c-0.2-0.2-1.5-2.1-0.6-3.4
		C96.2,236.8,97.8,237.7,99.1,239z"/>
</g>
<g id="XMLID_66_" opacity="0.8">
	<path id="XMLID_72_" d="M225.3,219.2c-1.4,1.5-3.3,2.9-5.7,4.5l-17.8-17.2c1.8-1.4,3.6-2.9,5.3-4.5L225.3,219.2z"/>
	<path id="XMLID_71_" d="M229.6,213.2c-1.3,2.2-2.5,3.9-3.7,5.3l-18.2-17.2c0.4-0.4,0.8-0.8,1.1-1.2c1-1.1,2-2.3,2.9-3.5
		c0.1-0.1,0.2-0.3,0.3-0.4L229.6,213.2z"/>
	<path id="XMLID_70_" d="M236.4,212.2c-1.1,2.9-2.7,5.7-4.7,8.2c0,0,0,0,0,0c0,0-0.1,0.1-0.1,0.1c0,0,0,0-0.1,0.1
		c-0.7,0.8-1.4,1.6-2.1,2.4c-0.7,0.8-1.5,1.5-2.3,2.1c0,0-0.1,0-0.1,0.1l0,0c-0.1,0-0.1,0.1-0.2,0.1c0,0,0,0,0,0c-2.4,2-5.1,3.7-8,5
		c0,0-0.1,0-0.2,0l-3.2-3.1l0.7-0.4c1.1-0.6,2.2-1.2,3.3-1.9c0,0,0.1,0,0.1-0.1c0.1,0,0.1-0.1,0.2-0.1l0.1,0c0,0,0,0,0,0
		c2.8-1.7,4.8-3.2,6.3-4.9c1.6-1.6,3.1-3.6,4.7-6.5c0,0,0,0,0,0l0.1-0.2c0,0,0-0.1,0.1-0.1c0,0,0,0,0,0c0.6-1.2,1.3-2.4,1.8-3.4
		l0.4-0.7l3.2,3.1C236.4,212.1,236.4,212.2,236.4,212.2z"/>
	<path id="XMLID_69_" d="M232.2,221.5l12.2,13.2c-0.5,0.4-1,0.9-1.5,1.4c-0.5,0.5-0.9,1-1.3,1.5L228,225.8
		C229.5,224.5,231,223.1,232.2,221.5z"/>
	<path id="XMLID_68_" d="M251.9,234.8c-0.3,0.2-0.6,0.3-0.8,0.5c-1.7,0.9-3.7,2.1-5.1,3.6c-1.3,1.3-2.4,2.9-3.6,5.4
		c-0.1,0.3-0.2,0.5-0.4,0.8l-2.1-2.1c0,0-0.1-0.2,0-0.2c0.6-1.5,1.4-3,2.4-4.3c0,0,0,0,0,0c0.9-1.2,1.9-2.2,3-3.1
		c1.3-1.1,2.7-1.9,4.2-2.6c0,0,0,0,0.1,0c0.1,0,0.1,0,0.2,0L251.9,234.8z"/>
	<path id="XMLID_67_" d="M250.5,240.5c1.1,1,0.4,2.6,0.2,3c-0.3,0.2-2,0.9-3-0.1l-0.2-0.2c-0.1-0.1-0.2-0.1-0.3,0l-0.2,0.2
		c0,0-2,1.6-3.4,0.7c1-2.1,1.9-3.4,3.1-4.5c1.3-1.3,2.8-2.3,4.3-3.1c0.9,1.3-0.4,3.2-0.6,3.4l-0.2,0.2c-0.1,0.1-0.1,0.2,0,0.3
		L250.5,240.5z"/>
</g>
<path id="XMLID_3_" d="M266.5,158.1l-13.9-2.4l-32.3-5.6c0.1,0.3,0.2,0.6,0.2,0.9c0.2,0.9,0.4,1.7,0.6,2.5l0,0.1c0,0.1,0,0.1,0,0.2
	l102.5,17.9H222l0,0.1l0,0.1l0,0.1c-0.1,0.5-0.1,0.9-0.2,1.4c0,0.2-0.1,0.5-0.1,0.7c0,0.2-0.1,0.5-0.1,0.7c0,0.1,0,0.3-0.1,0.4
	c-0.1,0.4-0.1,0.7-0.2,1.1l-0.2,0.8l-0.1,0.6c0,0.1,0,0.2-0.1,0.2c0,0.2-0.1,0.3-0.1,0.5l-0.2,0.7c-1.1,3.9-2.6,7.7-4.6,11.1
	c-0.1,0.2-0.3,0.5-0.4,0.7c-0.7,1.1-1.4,2.3-2.2,3.4l41-7.1l68.8-12l20.9-3.6L266.5,158.1z M195.3,210.6L195.3,210.6L195.3,210.6
	l-2.1,1.1l0,0l0,0l-0.7,0.3l-0.1,0l-0.1,0l-0.5,0.2l-6.8,38.8l-12.5,71.7V216.5l-0.8,0l-0.4,0h0l-0.4,0l-1.6,0l-0.4,0l-0.2,0
	c-0.2,0-0.2,0-0.3,0h0l-0.7-0.1l-0.7-0.1l-0.4,0l-0.2,0h0l0,0l-0.2,0l-0.5-0.1c-0.9-0.1-1.9-0.2-2.8-0.4l-0.8-0.1l-0.4-0.1l0,0l0,0
	l-0.4-0.1l-1.5-0.4c-0.4-0.1-0.8-0.2-1.2-0.3c-0.1,0-0.3-0.1-0.4-0.1l-0.8-0.2c-0.3-0.1-0.5-0.2-0.8-0.3c-0.6-0.2-1.1-0.4-1.5-0.5
	l0,0l0,0l-1.5-0.6c-0.2-0.1-0.4-0.2-0.6-0.2l-0.2-0.1c-0.1-0.1-0.2-0.1-0.4-0.2c-0.1-0.1-0.2-0.1-0.4-0.2c-0.2-0.1-0.3-0.1-0.5-0.2
	c-0.3-0.1-0.7-0.3-1-0.5l-1.2-0.6l23,132l13.5-77.5h0l2.4-13.7l0-0.2l0.1-0.6l7.1-40.7C195.6,210.4,195.5,210.5,195.3,210.6z
	 M172.6,171.6L172.6,171.6L172.6,171.6L172.6,171.6L172.6,171.6z M192.6,115.2l-4.1-23.6l-2.4-13.9L172.5,0.1l-19,109.2
	c0.3-0.1,0.6-0.1,0.9-0.2c0.8-0.1,1.6-0.3,2.5-0.4c0.1,0,0.2,0,0.2,0l15.4-88.4v88.3c0,0,0.1,0,0.1,0h0c1,0.1,2,0.3,3,0.5
	c1.1,0.2,2.3,0.5,3.4,0.7c0.3,0.1,0.6,0.1,0.8,0.2l0,0l0,0l0.6,0.2c0.5,0.1,1,0.3,1.5,0.4l0.5,0.2l0,0l0,0l0.5,0.2
	c0.3,0.1,0.7,0.2,1.1,0.4c1.7,0.6,3.4,1.3,5,2c1,0.4,1.8,0.9,2.6,1.3C192.1,115,192.4,115.1,192.6,115.2L192.6,115.2z M130.4,191.2
	L130.4,191.2l-0.1-0.1c-0.1-0.2-0.2-0.3-0.3-0.5l-33.6-5.9l-75.1-13.1h104.2v-0.3c0-0.4,0-0.9,0-1.4l0-0.8v0l0,0v0c0,0,0-0.1,0-0.2
	l0-0.2l0-0.4l0.1-0.7l0-0.4v0l0,0c0,0,0-0.1,0-0.1c0-0.1,0-0.2,0-0.3l0.2-1.6c0-0.2,0.1-0.5,0.1-0.7l0-0.1l0-0.1l0,0l0.1-0.7
	l0.1-0.8l0,0l0,0l0.5-1.9l0,0l0,0l0.1-0.4l0.4-1.5l0,0l0,0l0.5-1.5c0.6-1.7,1.3-3.4,2.2-5c0.4-0.8,0.9-1.7,1.5-2.6h0l0.1-0.2
	l0.2-0.3c0.1-0.1,0.1-0.2,0.2-0.3L84.7,157l-6,1.1L1.1,171.6l77.5,13.5l13.9,2.4l39.6,6.9c-0.1-0.1-0.1-0.2-0.2-0.4
	C131.3,193.1,130.8,192.1,130.4,191.2z"/>
<path id="logo_3_" d="M221.6,165c0,0.8,0,1.6-0.1,2.4l0,0.4c0,0.1,0,0,0,0.3l0,0.2l0,0.7c0,0.4-0.1,0.9-0.1,1.3c0,0.2,0,0.5-0.1,0.7
	l-0.1,0.6l0,0.1c-0.1,0.5-0.1,1-0.2,1.5c-0.1,0.5-0.2,1-0.3,1.4c-0.1,0.5-0.2,1-0.3,1.4c-0.1,0.5-0.2,0.9-0.3,1.4
	c-0.1,0.2-0.1,0.5-0.2,0.7l-0.2,0.7c-1.1,3.8-2.6,7.5-4.5,10.9c-0.1,0.2-0.3,0.5-0.4,0.7c-0.8,1.4-1.6,2.7-2.6,4v0
	c-0.3,0.4-0.6,0.8-0.8,1.1c-0.1,0.2-0.2,0.3-0.4,0.5c-0.9,1.2-1.9,2.3-2.9,3.4c-0.4,0.4-0.8,0.8-1.1,1.2c-0.2,0.2-0.4,0.4-0.6,0.6
	c-1.7,1.6-3.4,3.1-5.3,4.5c-0.7,0.5-1.5,1.1-2.2,1.6c-0.9,0.5-1.7,1.1-2.6,1.6c-0.1,0-0.2,0.1-0.3,0.2c-0.1,0-0.1,0.1-0.2,0.1
	c0,0,0,0,0,0c-0.3,0.2-0.6,0.3-0.9,0.5l-2.1,1l-0.7,0.3l-0.2,0.1l0,0l-1.2,0.5c-0.5,0.2-1,0.4-1.4,0.6c-0.5,0.2-1,0.4-1.5,0.5
	l-1.5,0.5c-0.2,0.1-0.4,0.1-0.5,0.2l-1,0.3l-0.8,0.2c-0.2,0.1-0.5,0.1-0.8,0.2l-1.5,0.4c-0.5,0.1-1,0.2-1.5,0.3
	c-0.3,0.1-0.7,0.1-1,0.2c-0.2,0-0.4,0.1-0.6,0.1l-1.5,0.2l-0.8,0.1c-0.3,0-0.5,0-0.8,0.1l-1.2,0.1c-0.5,0-1.4,0.1-1.9,0.1h0l-0.8,0
	l-0.4,0l-0.4,0l-1.6,0l-0.4,0l-0.2,0c-0.2,0-0.2,0-0.3,0l-0.7-0.1l-0.7-0.1l-0.4,0l-0.2,0l-0.2,0c-1.1-0.1-2.2-0.3-3.2-0.5l-0.8-0.1
	l-0.4-0.1l-0.4-0.1l-1.5-0.4c-0.5-0.1-1-0.3-1.5-0.4l-0.8-0.2c-0.3-0.1-0.5-0.2-0.8-0.3c-0.5-0.2-1-0.3-1.5-0.5l-1.5-0.6
	c-0.3-0.1-0.5-0.2-0.7-0.3c-0.2-0.1-0.5-0.2-0.7-0.3c-0.5-0.2-1-0.4-1.4-0.7l-1.4-0.7c-0.1-0.1-0.2-0.1-0.3-0.2c0,0,0,0,0,0
	c-0.2-0.1-0.5-0.3-0.7-0.4h0c-0.1-0.1-0.3-0.1-0.4-0.2c-0.2-0.1-0.5-0.3-0.7-0.4l-0.7-0.4c-0.4-0.3-0.9-0.6-1.3-0.9
	c-0.7-0.5-1.3-0.9-1.9-1.4c-1-0.8-2.1-1.7-3-2.6c-0.7-0.7-1.4-1.4-2.1-2.1c-0.2-0.2-0.4-0.4-0.6-0.6c-0.6-0.6-1.1-1.3-1.7-1.9
	c-0.7-0.9-1.5-1.9-2.1-2.9v0c-0.1-0.1-0.2-0.3-0.3-0.4c-0.2-0.3-0.4-0.6-0.6-0.9h0c-0.2-0.3-0.4-0.6-0.6-0.9c-0.6-1-1.1-2-1.6-3l0,0
	c-0.4-0.9-0.9-1.8-1.2-2.7c-0.8-2-1.5-4-2-6.1c-0.9-3.4-1.3-6.9-1.4-10.3h0v-0.3c0-0.5,0-0.9,0-1.4l0-0.8c0-0.1,0-0.1,0-0.3l0-0.2
	l0-0.4l0.1-0.7l0-0.4c0-0.1,0-0.2,0-0.4l0.2-1.6c0-0.3,0.1-0.5,0.1-0.8c0,0,0,0,0,0l0.1-0.8l0.1-0.8l0.5-1.9l0.1-0.4l0.4-1.5
	l0.5-1.5c0.6-1.7,1.3-3.3,2.1-4.9c0.5-0.9,1-1.8,1.5-2.6h0c0.2-0.4,0.4-0.7,0.7-1c0.1-0.1,0.1-0.2,0.2-0.3l0,0
	c0.3-0.4,0.6-0.9,0.9-1.3c0.3-0.4,0.5-0.7,0.8-1c0.6-0.8,1.2-1.5,1.9-2.2c0.1-0.1,0.2-0.2,0.3-0.3c1.1-1.2,2.3-2.4,3.6-3.4l0,0
	c0.1-0.1,0.3-0.2,0.4-0.4c0,0,0,0,0,0c0.9-0.7,1.8-1.4,2.7-2c1.5-1,3-1.9,4.6-2.7c0.2-0.1,0.3-0.2,0.5-0.2l0,0
	c0.1,0,0.2-0.1,0.3-0.1c0.1-0.1,0.3-0.1,0.4-0.2c0.2-0.1,0.3-0.2,0.5-0.2v0c0.8-0.4,1.7-0.7,2.6-1c0.7-0.3,1.5-0.5,2.3-0.7
	c0.5-0.1,1-0.3,1.5-0.4c0.1,0,0.2,0,0.3-0.1c0.4-0.1,0.8-0.2,1.2-0.3c1-0.2,2-0.4,3.1-0.5l0.8-0.1c0.3,0,0.5-0.1,0.8-0.1l1.5-0.1
	c0.5,0,1,0,1.5,0c0.2,0,0.4,0,0.6,0c0.1,0,0.1,0,0.2,0l0.8,0l0.8,0l0.4,0c0.2,0,0.2,0,0.2,0l0.2,0l1.4,0.1c0.5,0.1,1,0.1,1.6,0.2
	c0.3,0,0.5,0.1,0.8,0.1h0l0.7,0.1c2,0.4,3.9,0.9,5.8,1.6c3.8,1.4,7.2,3.5,10.2,6c0.3,0.2,0.5,0.5,0.8,0.7c0.3,0.3,0.6,0.6,0.9,0.9
	c1.1,1,2.1,2.2,3.1,3.3v0c0.2,0.3,0.5,0.6,0.7,0.9c0.3,0.5,0.7,0.9,1,1.4c0.2,0.3,0.5,0.7,0.7,1.1c0.1,0.2,0.2,0.3,0.3,0.5
	c0.2,0.3,0.4,0.7,0.6,1c0.1,0.1,0.2,0.3,0.2,0.4c0,0,0,0.1,0.1,0.1c0,0,0,0,0,0c0.2,0.3,0.4,0.7,0.5,1c0.2,0.4,0.4,0.8,0.6,1.2
	c0,0,0,0,0,0.1c0.2,0.4,0.4,0.9,0.6,1.3c0.3,0.7,0.5,1.3,0.7,2c0.1,0.2,0.1,0.3,0.2,0.5l0.1,0.4c0,0,0,0.1,0,0.1
	c0.1,0.4,0.2,0.8,0.3,1.2c0.1,0.4,0.2,0.8,0.3,1.3c0.2,0.9,0.4,1.8,0.5,2.8c0.1,0.5,0.1,0.9,0.2,1.4l0,0.3l0,0.3l0.1,0.7l0.1,0.7
	c0,0.3,0,0.5,0,0.8c0,0.3,0,0.5,0,0.8c0,0.5,0,0.9,0,1.4v0.2c0,0.1,0,0.2,0,0.2l0,0.3l-0.1,0.7c0,0.4-0.1,0.9-0.2,1.4l-0.1,0.7
	c0,0.1-0.1,0.3-0.1,0.4c0,0.1,0,0.2,0,0.3c-0.1,0.9-0.4,1.8-0.6,2.7c-0.5,1.8-1.1,3.4-1.8,5.1c-0.8,1.6-1.6,3.2-2.6,4.6
	c-0.1,0.2-0.2,0.3-0.3,0.5c-0.1,0.1-0.1,0.2-0.2,0.3c0,0,0,0.1-0.1,0.1c-0.1,0.1-0.2,0.3-0.3,0.4c-0.2,0.3-0.4,0.6-0.7,0.9
	c-0.1,0.2-0.3,0.3-0.4,0.5c-0.1,0.1-0.1,0.1-0.2,0.2c0,0,0,0,0,0.1c0,0-0.1,0.1-0.1,0.1c-0.1,0.1-0.2,0.2-0.2,0.3
	c-0.3,0.3-0.5,0.6-0.8,0.8c-0.3,0.3-0.6,0.6-0.9,0.9c-0.2,0.2-0.5,0.5-0.7,0.7c-0.1,0.1-0.3,0.2-0.4,0.4h0c-0.3,0.3-0.7,0.6-1,0.9
	c-0.2,0.2-0.4,0.3-0.6,0.5c-0.1,0.1-0.1,0.1-0.2,0.2c-0.3,0.2-0.5,0.4-0.8,0.6c-0.1,0.1-0.1,0.1-0.2,0.2c-0.3,0.2-0.6,0.4-0.9,0.6
	c-0.3,0.2-0.6,0.4-0.9,0.5c-0.1,0-0.1,0.1-0.2,0.1c0,0,0,0-0.1,0c-0.3,0.2-0.7,0.4-1,0.6c0,0,0,0,0,0c-1.5,0.8-3,1.4-4.6,2
	c-0.4,0.1-0.8,0.3-1.2,0.4c-0.4,0.1-0.8,0.2-1.2,0.3c-0.8,0.2-1.6,0.4-2.4,0.5c-0.7,0.1-1.5,0.2-2.2,0.3l-1,0.1c-0.3,0-0.6,0-0.9,0
	c-0.2,0-0.5,0-0.7,0c-0.2,0-0.4,0-0.6,0c-0.6,0-1.2,0-1.7,0c-0.4,0-0.8-0.1-1.1-0.1c-0.4,0-0.8-0.1-1.2-0.1
	c-0.4-0.1-0.8-0.1-1.2-0.2c-0.3-0.1-0.7-0.1-1-0.2c0,0,0,0,0,0c0,0,0,0-0.1,0c0,0,0,0,0,0l-0.1,0c-0.3-0.1-0.7-0.2-1-0.2
	c-0.3-0.1-0.7-0.2-1-0.3h0c-0.3-0.1-0.6-0.2-0.9-0.3c0,0,0,0-0.1,0c-0.2-0.1-0.3-0.1-0.5-0.2c0,0-0.1,0-0.1-0.1
	c-0.4-0.2-0.8-0.3-1.2-0.5c0,0,0,0,0,0h0c-0.3-0.1-0.6-0.3-0.9-0.4c-0.1-0.1-0.3-0.1-0.4-0.2c-0.3-0.1-0.5-0.3-0.8-0.4
	c-0.1-0.1-0.3-0.1-0.4-0.2c-0.2-0.1-0.4-0.2-0.6-0.4c-0.1,0-0.1-0.1-0.2-0.1c-0.3-0.2-0.6-0.3-0.8-0.5c-0.2-0.2-0.5-0.3-0.7-0.5
	c-0.1-0.1-0.2-0.1-0.3-0.2l-0.3-0.2c0,0,0,0-0.1,0c-0.2-0.2-0.4-0.3-0.6-0.4c-0.2-0.2-0.4-0.3-0.6-0.5c-0.6-0.5-1.1-0.9-1.6-1.4
	c-1-1-1.9-2-2.8-3.1c-0.4-0.5-0.7-0.9-1-1.4v0c-0.1-0.1-0.1-0.1-0.2-0.2c-0.2-0.3-0.4-0.6-0.5-0.8l-0.3-0.4l-0.2-0.4
	c-0.2-0.3-0.4-0.7-0.5-1c-0.1-0.3-0.3-0.6-0.4-0.8c0,0-0.1-0.1-0.1-0.1l0,0c0,0,0,0,0,0c0,0,0-0.1-0.1-0.1c0,0,0,0,0-0.1
	c-0.1-0.2-0.2-0.4-0.2-0.5c0-0.1,0-0.1-0.1-0.2c-0.1-0.1-0.1-0.2-0.1-0.3c0-0.1-0.1-0.1-0.1-0.2c0,0,0-0.1,0-0.1
	c-0.1-0.2-0.1-0.4-0.2-0.6c-0.1-0.2-0.2-0.5-0.3-0.7c-0.1-0.3-0.2-0.5-0.2-0.8c-0.2-0.5-0.3-1-0.4-1.5c-0.1-0.3-0.1-0.5-0.2-0.8
	c-0.1-0.5-0.2-1-0.3-1.6c0-0.3-0.1-0.5-0.1-0.8c0-0.3-0.1-0.5-0.1-0.8c0-0.2-0.1-0.5-0.1-0.7c0-0.1,0-0.1,0-0.2c0-0.1,0-0.2,0-0.3
	c0-0.1,0-0.2,0-0.3c0-0.2,0-0.6,0-0.8c0-2.4,0.3-4.7,0.9-6.9c0.6-2,1.4-4,2.3-5.6c0.2-0.3,0.4-0.6,0.6-1c0,0,0,0,0,0h0
	c0,0,0.1-0.1,0.1-0.1c0.2-0.3,0.3-0.5,0.5-0.8c0.6-0.9,1.3-1.8,2.1-2.6c0.1-0.1,0.1-0.1,0.2-0.2c0,0,0.1,0,0.1-0.1
	c0.1-0.1,0.2-0.2,0.3-0.3c0.1-0.1,0.2-0.2,0.3-0.3c0.3-0.3,0.6-0.6,0.9-0.8l0,0c0.2-0.2,0.3-0.3,0.5-0.4c0.2-0.2,0.3-0.3,0.5-0.4
	c0,0,0,0,0,0c0,0,0,0,0.1,0c0,0,0.1-0.1,0.1-0.1c0.1-0.1,0.3-0.2,0.4-0.3c0.2-0.1,0.4-0.3,0.6-0.4c0.6-0.5,1.3-0.9,1.9-1.2
	c0.2-0.1,0.3-0.2,0.5-0.3c0.2-0.1,0.4-0.2,0.6-0.3c0.2-0.1,0.4-0.2,0.6-0.3c0.9-0.4,1.8-0.8,2.6-1.1h0c0.1,0,0.2-0.1,0.3-0.1
	c0.2-0.1,0.4-0.1,0.6-0.2c0.2-0.1,0.5-0.1,0.7-0.2c0.2-0.1,0.4-0.1,0.6-0.2c0.2-0.1,0.4-0.1,0.6-0.1c0.2,0,0.4-0.1,0.5-0.1
	c0.2,0,0.4-0.1,0.6-0.1c1.8-0.3,3.3-0.4,4.2-0.4h0.2c0.4,0,0.7,0,0.9,0c0.2,0,0.4,0,0.4,0s-0.1,0-0.4,0c-0.2,0-0.4,0-0.7,0
	c-0.1,0-0.3,0-0.4,0c-0.5,0-1.2,0.1-2.1,0.1c-0.3,0-0.6,0.1-0.9,0.1c-0.4,0.1-0.8,0.1-1.3,0.2c-0.2,0.1-0.5,0.1-0.7,0.2
	c-0.1,0-0.3,0.1-0.4,0.1c0,0-0.1,0-0.1,0c-0.1,0-0.2,0-0.3,0.1c-0.3,0.1-0.6,0.2-0.9,0.3c-0.2,0.1-0.4,0.1-0.6,0.2
	c-0.2,0.1-0.4,0.1-0.6,0.2c-0.1,0-0.2,0.1-0.3,0.1c-0.1,0.1-0.2,0.1-0.4,0.1c-0.1,0-0.2,0.1-0.4,0.2c-0.1,0-0.2,0.1-0.3,0.1
	c-0.1,0-0.2,0.1-0.3,0.1c0,0-0.1,0-0.1,0.1c-0.2,0.1-0.3,0.1-0.5,0.2c-0.2,0.1-0.4,0.2-0.7,0.3c-1.4,0.7-2.9,1.7-4.4,2.9
	c-0.5,0.4-1,0.9-1.5,1.4c-0.3,0.3-0.6,0.6-0.9,0.9c-0.1,0.2-0.3,0.3-0.4,0.5c-0.1,0.2-0.3,0.3-0.4,0.5c-0.4,0.5-0.8,1-1.2,1.6
	c-0.1,0.2-0.2,0.3-0.3,0.5c-0.1,0.2-0.3,0.4-0.4,0.7c0,0.1-0.1,0.1-0.1,0.2c-0.2,0.3-0.4,0.7-0.6,1c-0.1,0.1-0.1,0.2-0.1,0.3
	c0,0,0,0.1,0,0.1c-0.6,1.3-1,2.6-1.4,4c-0.5,2-0.8,4.1-0.7,6.2c0-0.1,0-0.3,0-0.4c0,0.8,0,1.7,0,2.5c0,0.2,0,0.4,0.1,0.6
	c0.1,1.6,0.4,3.2,0.8,4.7c0.2,0.8,0.5,1.5,0.7,2.3c0.6,1.5,1.3,3,2.1,4.5l0.2,0.4l0.3,0.4c0.2,0.3,0.3,0.5,0.5,0.8
	c0,0.1,0.1,0.1,0.1,0.2c0.3,0.5,0.7,0.9,1,1.4c0.8,1,1.7,2,2.7,2.9c0.4,0.4,0.9,0.8,1.4,1.2c0,0,0,0,0,0c1.6,1.3,3.4,2.4,5.3,3.3
	c0.1,0,0.2,0.1,0.3,0.1c0.2,0.1,0.5,0.2,0.7,0.3c1,0.4,1.9,0.7,3,1c1.4,0.4,2.8,0.7,4.2,0.8c0.4,0,0.7,0.1,1.1,0.1
	c0.4,0,0.7,0,1.1,0.1c0.4,0,0.8,0,1.2,0c0.3,0,0.7,0,1,0c0.3,0,0.6,0,0.9-0.1c0.2,0,0.4,0,0.6,0c0.3,0,0.5-0.1,0.8-0.1
	c0.7-0.1,1.5-0.2,2.2-0.4c0.7-0.1,1.5-0.3,2.2-0.5c0.4-0.1,0.7-0.2,1.1-0.3c0.4-0.1,0.7-0.2,1.1-0.4c1.3-0.5,2.5-1,3.7-1.7
	c0.2-0.1,0.3-0.2,0.5-0.3c1.8-1,3.5-2.2,5.1-3.6l0,0c0.2-0.2,0.4-0.4,0.6-0.6c0.5-0.5,1-1,1.5-1.6c0,0,0,0,0,0c0,0,0,0,0.1-0.1
	c0,0,0.1-0.1,0.1-0.1c0.8-0.9,1.6-1.8,2.3-2.8c0,0,0,0,0,0l-0.1-0.1c0.1-0.1,0.1-0.2,0.2-0.3c0.9-1.4,1.6-2.8,2.3-4.3
	c0.6-1.5,1.2-3.1,1.6-4.7c0.2-0.8,0.4-1.6,0.5-2.4c0-0.1,0-0.2,0.1-0.3c0-0.1,0-0.2,0-0.3l0.1-0.6c0.1-0.4,0.1-0.8,0.1-1.2
	c0.1-0.8,0.1-1.5,0.1-2.3V167c0-1.1,0-2.1-0.1-3.2l-0.1-0.6l0-0.3l0-0.3c-0.1-0.4-0.1-0.8-0.2-1.3c-0.2-0.8-0.3-1.7-0.5-2.5
	c-0.1-0.4-0.2-0.8-0.3-1.2c-0.4-1.3-0.8-2.5-1.3-3.7c-0.3-0.7-0.7-1.4-1-2.1c-0.1-0.2-0.2-0.4-0.3-0.6c-0.1-0.2-0.2-0.3-0.3-0.5
	c-0.1-0.2-0.2-0.4-0.4-0.6c0-0.1-0.1-0.1-0.1-0.2v0c-0.1-0.2-0.2-0.3-0.3-0.5c-0.2-0.4-0.5-0.7-0.7-1.1c0,0,0,0,0,0
	c-0.2-0.3-0.5-0.7-0.7-1c0,0-0.1-0.1-0.1-0.1c-0.2-0.3-0.5-0.6-0.7-0.9c-0.2-0.2-0.4-0.5-0.6-0.7c-0.2-0.2-0.3-0.3-0.5-0.5
	c0,0,0,0,0,0c-0.2-0.2-0.4-0.4-0.6-0.7c-0.2-0.2-0.4-0.4-0.6-0.6c-0.2-0.2-0.3-0.3-0.5-0.5c-0.1-0.1-0.2-0.2-0.3-0.3
	c-0.2-0.2-0.4-0.3-0.5-0.5c-0.3-0.3-0.6-0.6-1-0.8c-2.8-2.2-5.9-4-9.3-5.2c-1.7-0.6-3.4-1-5.2-1.3h0l-0.7-0.1
	c-0.2,0-0.4-0.1-0.7-0.1l-1.3-0.1l-1.4-0.1l-0.2,0c0,0-0.1,0-0.1,0h-0.3l-0.7,0l-0.7,0c-0.2,0-0.5,0-0.7,0c-0.5,0-0.9,0-1.4,0.1
	l-1.4,0.1c-0.2,0-0.5,0.1-0.7,0.1l-0.7,0.1c-1.8,0.3-3.6,0.7-5.3,1.2c-1,0.3-2.1,0.7-3.1,1.1h0c-0.3,0.1-0.5,0.2-0.8,0.3
	c-0.2,0.1-0.3,0.1-0.5,0.2h0c-0.2,0.1-0.5,0.2-0.7,0.4c-0.3,0.2-0.7,0.4-1,0.5c-0.3,0.2-0.6,0.3-0.9,0.5c-0.2,0.1-0.5,0.3-0.7,0.4
	c-0.2,0.1-0.4,0.2-0.6,0.4h0c-0.1,0.1-0.2,0.2-0.4,0.2c0,0-0.1,0-0.1,0.1c-0.4,0.2-0.7,0.5-1.1,0.7c-0.4,0.3-0.8,0.6-1.2,0.9
	c-0.3,0.2-0.6,0.4-0.8,0.7c-0.1,0-0.1,0.1-0.1,0.1c-0.3,0.3-0.7,0.6-1,0.9c-0.3,0.3-0.7,0.6-1,0.9c0,0,0,0,0,0
	c-0.3,0.3-0.6,0.6-0.9,0.9c-0.2,0.2-0.3,0.4-0.5,0.5c0,0,0,0,0,0.1c-0.2,0.2-0.4,0.4-0.5,0.6c-0.2,0.2-0.4,0.5-0.6,0.7c0,0,0,0,0,0
	l0,0c-0.3,0.4-0.6,0.8-1,1.2c0,0-0.1,0.1-0.1,0.1h0c0,0,0,0,0,0c-0.1,0.1-0.2,0.2-0.3,0.4c-0.2,0.2-0.4,0.5-0.5,0.8
	c0,0-0.1,0.1-0.1,0.1c0,0,0,0,0,0.1c-0.2,0.2-0.3,0.5-0.5,0.8c0,0.1-0.1,0.1-0.1,0.2c-0.1,0.1-0.2,0.3-0.2,0.4c0,0-0.1,0.1-0.1,0.1
	c-0.3,0.5-0.6,1.1-0.9,1.6c-0.1,0.2-0.2,0.4-0.3,0.6c0,0,0,0.1-0.1,0.1c-0.1,0.2-0.2,0.5-0.4,0.7c-0.3,0.6-0.5,1.1-0.7,1.7
	c-0.1,0.2-0.2,0.5-0.3,0.7c0,0.1-0.1,0.3-0.1,0.4c-0.1,0.4-0.3,0.7-0.4,1.1l-0.4,1.3l-0.4,1.3l-0.1,0.3l-0.1,0.3l-0.1,0.7l-0.2,0.7
	l-0.1,0.7l-0.1,0.7c0,0.2-0.1,0.5-0.1,0.7l-0.1,1.3c0,0.1,0,0.2,0,0.4l0,0.4l0,0.7l0,0.4l0,0.2c0,0,0,0.1,0,0.1v0.4c0,0,0,0,0,0.1
	v0.2c0,0.3,0,0.6,0,0.9c0,0.4,0,0.9,0,1.3c0,0.1,0,0.3,0,0.4v0c0,0,0,0,0,0.1c0,0.8,0.1,1.5,0.2,2.3c0,0.3,0.1,0.7,0.1,1
	c0,0.1,0,0.2,0,0.3c0,0.3,0.1,0.6,0.1,0.8c0,0,0,0.1,0,0.1c0.1,0.3,0.1,0.7,0.2,1c0.1,0.4,0.1,0.7,0.2,1.1c0,0.2,0.1,0.4,0.1,0.6
	c0.1,0.3,0.1,0.5,0.2,0.8c0.1,0.3,0.1,0.6,0.2,0.9c0,0.1,0,0.1,0,0.1c0.5,1.7,1.1,3.4,1.8,5.1c0.8,1.7,1.6,3.3,2.6,4.9
	c0,0.1,0.1,0.1,0.1,0.2v0c0,0.1,0.1,0.2,0.1,0.2c0.1,0.1,0.2,0.3,0.3,0.4h0c0.6,0.9,1.3,1.9,2,2.7c0.2,0.3,0.5,0.6,0.7,0.9
	c0.1,0.1,0.3,0.3,0.4,0.4c1.1,1.2,2.2,2.4,3.4,3.5c1,0.9,2.1,1.7,3.1,2.5v0h0c0,0,0,0,0.1,0.1c0,0,0,0,0,0c0.4,0.3,0.8,0.5,1.1,0.8
	c0,0,0.1,0,0.1,0.1c0.3,0.2,0.7,0.4,1.1,0.7l0.6,0.4c0.2,0.1,0.4,0.2,0.6,0.3c0.1,0.1,0.3,0.2,0.4,0.2c0.2,0.1,0.4,0.2,0.6,0.3
	c0.1,0,0.1,0.1,0.2,0.1l0.4,0.2l0.6,0.3h0l0.2,0.1c0.4,0.2,0.8,0.4,1.2,0.6c0.4,0.2,0.8,0.4,1.3,0.5l1.3,0.5l1.3,0.4
	c0.2,0.1,0.4,0.1,0.6,0.2l0.7,0.2c0.4,0.1,0.9,0.2,1.3,0.3l1.3,0.3l0.3,0.1l0.3,0.1l0.7,0.1c0.9,0.2,1.7,0.2,2.6,0.3l0.2,0l0.2,0
	l0.4,0l0.7,0l0.7,0.1h0.6l1.4,0h0.3l0.3,0l0.7,0c0.1,0,0.1,0,0.2,0h0c0.4,0,0.7,0,1.1-0.1l1.3-0.1c0.2,0,0.5,0,0.7-0.1l0.7-0.1
	l1.3-0.2l1.3-0.3c0.4-0.1,0.9-0.2,1.3-0.3l1.3-0.3c0.2,0,0.4-0.1,0.5-0.1l0.7-0.2l0.6-0.2c0.2-0.1,0.4-0.1,0.6-0.2l1.2-0.5
	c0.4-0.1,0.8-0.3,1.2-0.5c0.4-0.2,0.8-0.3,1.2-0.5l1.2-0.6l0.6-0.3l0.6-0.3l0.4-0.2l0.6-0.3l0.2-0.1c0.3-0.2,0.6-0.4,0.9-0.5
	c0.3-0.2,0.6-0.4,0.9-0.5c0.1-0.1,0.2-0.1,0.3-0.2c0.4-0.3,0.8-0.5,1.2-0.8c0.5-0.4,1-0.7,1.5-1.1c0.3-0.2,0.5-0.4,0.8-0.6
	c0.2-0.1,0.4-0.3,0.5-0.4l0,0c1.1-0.9,2.2-2,3.3-3l0,0c0.4-0.4,0.9-0.9,1.3-1.4l0,0c0.1-0.1,0.2-0.2,0.3-0.3
	c0.1-0.1,0.1-0.1,0.2-0.2c0,0,0,0,0,0c0,0,0.1-0.1,0.1-0.1l0,0c0.1-0.1,0.2-0.2,0.2-0.3c0.5-0.6,1.1-1.2,1.6-1.9l-0.1,0
	c0.3-0.4,0.6-0.7,0.8-1.1c0.1-0.2,0.2-0.4,0.4-0.5h0c0.1-0.2,0.2-0.4,0.4-0.6c0.8-1.2,1.5-2.4,2.1-3.6c1.6-3,2.7-6.1,3.6-9.3
	l0.2-0.6c0-0.2,0.1-0.4,0.1-0.6l0.2-1.2c0.1-0.4,0.1-0.8,0.2-1.2c0.1-0.4,0.1-0.8,0.2-1.2c0-0.3,0.1-0.6,0.1-0.9v0
	c0-0.1,0-0.1,0-0.2l0.1-0.6c0-0.2,0-0.4,0.1-0.6c0-0.4,0.1-0.9,0.1-1.3l0-0.7l0-0.2c0,0,0-0.1,0-0.1v-0.3c0-0.6,0-1.2,0-1.8
	c0-0.2,0-0.4,0-0.7v-0.2c0-0.3,0-0.6,0-0.9c0,0,0-0.1,0-0.1c0,0,0-0.1,0-0.1c0-0.5-0.1-1.1-0.1-1.6c0-0.2,0-0.4-0.1-0.6
	c0-0.1,0-0.3,0-0.4c0-0.2,0-0.4-0.1-0.5c0-0.5-0.1-1-0.2-1.5c0-0.4-0.1-0.8-0.2-1.1c-0.1-0.7-0.3-1.4-0.4-2.1
	c-0.1-0.2-0.1-0.5-0.2-0.7c0-0.1-0.1-0.3-0.1-0.4c-0.1-0.3-0.1-0.5-0.2-0.8c0-0.1,0-0.2-0.1-0.2c-0.1-0.2-0.1-0.4-0.2-0.6
	c0-0.2-0.1-0.4-0.2-0.5c-0.1-0.2-0.1-0.3-0.2-0.5c-0.1-0.2-0.1-0.3-0.1-0.5v0c0-0.1-0.1-0.2-0.1-0.3c0,0,0-0.1,0-0.1
	c-0.1-0.3-0.2-0.6-0.3-0.9c-0.1-0.2-0.2-0.4-0.2-0.6c-0.1-0.2-0.1-0.4-0.2-0.6c0,0,0,0,0,0c-0.1-0.2-0.1-0.3-0.2-0.5
	c-0.1-0.2-0.2-0.4-0.2-0.6c0-0.1,0-0.1-0.1-0.2v0c-0.1-0.2-0.1-0.3-0.2-0.5c-0.2-0.4-0.4-0.8-0.5-1.2c-0.1-0.3-0.2-0.5-0.4-0.8
	c0-0.1-0.1-0.1-0.1-0.2c-0.1-0.2-0.2-0.5-0.4-0.7c0-0.1-0.1-0.2-0.1-0.2c-0.1-0.2-0.3-0.5-0.4-0.7c0,0,0-0.1-0.1-0.1
	c-0.2-0.3-0.3-0.6-0.5-0.8c0,0,0,0,0,0c-0.1-0.3-0.3-0.5-0.4-0.7c-0.2-0.2-0.3-0.5-0.5-0.7c-0.2-0.3-0.4-0.6-0.5-0.8
	c-0.2-0.4-0.5-0.8-0.8-1.1c-0.1-0.2-0.3-0.4-0.4-0.6c-0.4-0.6-0.9-1.2-1.4-1.8c-0.2-0.3-0.5-0.6-0.7-0.9c-0.1-0.1-0.1-0.1-0.2-0.2
	c-0.2-0.3-0.5-0.6-0.7-0.8c-0.2-0.3-0.4-0.5-0.7-0.8c-0.1-0.1-0.2-0.2-0.2-0.3c-0.2-0.2-0.5-0.5-0.7-0.7c-0.1-0.1-0.1-0.1-0.2-0.2
	c-0.1-0.1-0.3-0.3-0.4-0.4c-0.2-0.2-0.4-0.4-0.6-0.5c-0.2-0.2-0.5-0.4-0.7-0.6c-0.2-0.2-0.4-0.3-0.5-0.5c-0.2-0.2-0.5-0.4-0.7-0.6
	c-0.2-0.2-0.4-0.4-0.7-0.5c-0.2-0.1-0.4-0.3-0.6-0.4h0c0,0,0,0,0,0c-0.2-0.2-0.4-0.3-0.6-0.5c-0.2-0.2-0.4-0.3-0.6-0.5
	c-0.4-0.3-0.7-0.5-1.1-0.8c-0.4-0.3-0.7-0.5-1.1-0.8c-0.2-0.1-0.3-0.2-0.5-0.3c-1.1-0.7-2.2-1.3-3.3-1.9c-1.7-0.9-3.5-1.7-5.2-2.3
	c-0.6-0.2-1.2-0.4-1.8-0.6c-0.3-0.1-0.6-0.2-0.9-0.3l-0.4-0.1l-0.4-0.1c-0.3-0.1-0.6-0.2-0.9-0.2c-0.3-0.1-0.6-0.2-0.9-0.2
	c-1.2-0.2-2.3-0.5-3.5-0.7c-0.4-0.1-0.8-0.1-1.2-0.2h0c-0.7-0.1-1.4-0.1-2-0.2c-0.3,0-0.6,0-0.9-0.1c-0.3,0-0.6,0-0.9-0.1l-0.5,0
	l-0.2,0h-0.9c-0.3,0-0.6,0-0.8,0c-0.4,0-0.9,0-1.3,0c-0.1,0-0.2,0-0.4,0h-0.1c-0.4,0-0.9,0-1.3,0.1c0,0,0,0,0,0c0,0,0,0,0,0
	c-0.4,0-0.7,0-1.1,0.1c0,0,0,0-0.1,0c-0.2,0-0.5,0-0.7,0.1h0c-0.1,0-0.1,0-0.2,0c-0.2,0-0.5,0.1-0.8,0.1c-0.2,0-0.5,0.1-0.7,0.1
	c-0.3,0-0.6,0.1-0.9,0.1c-0.2,0-0.4,0.1-0.6,0.1c0,0-0.1,0-0.1,0h0c-0.1,0-0.1,0-0.1,0c-0.2,0-0.4,0.1-0.6,0.1
	c-0.2,0-0.5,0.1-0.7,0.1c-0.2,0-0.3,0.1-0.4,0.1c-0.3,0.1-0.6,0.1-0.9,0.2c-0.1,0-0.2,0-0.3,0.1c-0.5,0.1-0.9,0.2-1.4,0.3
	c-0.3,0.1-0.6,0.2-0.9,0.2v0c-0.4,0.1-0.8,0.2-1.2,0.3h0c-0.8,0.2-1.6,0.5-2.4,0.8c-0.2,0.1-0.4,0.1-0.6,0.2
	c-0.2,0.1-0.3,0.1-0.5,0.2c-0.2,0.1-0.5,0.2-0.7,0.3c-0.7,0.3-1.4,0.6-2.1,0.9c-0.1,0-0.1,0-0.2,0.1c-0.4,0.2-0.7,0.3-1.1,0.5
	c-0.3,0.2-0.7,0.4-1,0.5c-0.7,0.4-1.3,0.6-1.9,1c-0.1,0.1-0.2,0.1-0.3,0.2c-0.2,0.1-0.5,0.3-0.7,0.4c-0.1,0.1-0.3,0.1-0.4,0.2
	c-0.1,0.1-0.2,0.1-0.4,0.2c-0.3,0.2-0.5,0.4-0.8,0.5c-0.3,0.2-0.5,0.4-0.8,0.5c-0.3,0.2-0.5,0.3-0.7,0.5c-0.2,0.2-0.5,0.4-0.7,0.5
	c-0.5,0.3-0.9,0.6-1.3,0.9c-0.7,0.6-1.4,1.1-2,1.6c0,0.1,6.4,3.7,6.4,3.7l1,0.5h0c-3.5,0.2-7.4,0.9-11.3,1.8
	c-0.6,0.1-1.1,0.3-1.7,0.4c0,0-0.1,0-0.1,0c-2.7,0.7-5.4,1.6-8,2.5c-1.9,0.7-3.7,1.4-5.4,2.1c-0.3,0.1-0.5,0.2-0.8,0.3
	c0,0,0,0-0.1,0c-0.2,0.1-0.4,0.2-0.5,0.2c0.1-0.2,0.2-0.4,0.3-0.7h0c0.7-1.4,1.3-3,2-4.6c1.4-3.4,2.7-7.2,3.8-10.8v0
	c0.3-1,0.5-1.9,0.8-2.9c0.2-0.8,0.4-1.7,0.6-2.5c0.5-2.2,0.8-4.3,1-6.3l0.4,0.9v0l0,0l0.3,0.7c0,0,3.7,6,3.9,6c0,0,0,0,0,0
	c0,0,2.3-1.9,5.2-3.9c0,0,0.1,0,0.1-0.1l-0.1-0.1l0.1,0.1c0,0,0.1,0,0.1-0.1c0.2-0.2,0.5-0.3,0.7-0.4c0.5-0.3,1-0.6,1.5-1
	c0,0,0,0,0,0c0,0,0,0,0,0c0,0,0,0,0.1,0c0.1-0.1,0.2-0.1,0.3-0.2c0.7-0.4,1.4-0.8,2.2-1.2c0.7-0.4,1.5-0.8,2.2-1.1
	c0,0,0.1,0,0.1-0.1c0.2-0.1,0.4-0.2,0.7-0.3c0,0,0,0,0,0c0.2-0.1,0.4-0.2,0.6-0.3c0.1-0.1,0.2-0.1,0.3-0.1c0.3-0.1,0.6-0.3,1-0.4
	c1.4-0.6,2.8-1.2,4.4-1.7c2.4-0.8,4.9-1.5,7.7-2.1c0.3-0.1,0.5-0.1,0.8-0.2h0c0.4-0.1,0.8-0.1,1.2-0.2c0.8-0.1,1.6-0.3,2.5-0.4
	c2.5-0.3,5.2-0.5,8-0.5c0.8,0,1.6,0,2.4,0c0.3,0,0.7,0,1,0c0,0,0.2,0,0.2,0l0.1,0l0.2,0l0.5,0c0.6,0,1.2,0.1,1.9,0.2
	c0.4,0.1,0.7,0.1,1.1,0.1c0.1,0,0.1,0,0.2,0h0c1,0.1,2,0.3,3,0.5c1.4,0.2,2.8,0.6,4.2,0.9c0.7,0.2,1.4,0.4,2.1,0.6l0.5,0.2l0.5,0.2
	c0.3,0.1,0.7,0.2,1.1,0.4c1.6,0.6,3.3,1.2,4.9,2c0.9,0.4,1.7,0.8,2.6,1.3c0.3,0.1,0.6,0.3,0.8,0.5c0.1,0.1,0.3,0.2,0.4,0.2
	c0,0,0,0,0,0c2.6,1.4,5.1,3.1,7.5,5.1c0.3,0.2,0.6,0.5,0.8,0.7c1.6,1.3,3.1,2.7,4.6,4.2c0.3,0.3,0.5,0.5,0.8,0.8
	c0.1,0.1,0.3,0.3,0.4,0.4c2,2.2,3.9,4.7,5.6,7.3c0.4,0.6,0.7,1.2,1.1,1.8c0.5,0.9,1,1.8,1.5,2.7c0.3,0.5,0.6,1.1,0.8,1.6
	c0.7,1.5,1.4,3,2,4.6c0.6,1.5,1.1,3,1.5,4.5v0c0.1,0.4,0.2,0.8,0.3,1.2c0.2,0.8,0.4,1.7,0.6,2.5c0,0,0,0,0,0
	c0.2,1.1,0.4,2.1,0.6,3.2C221.4,159.5,221.6,162.3,221.6,165z"/>
</svg>
