<?xml version="1.0" encoding="utf-8"?>
<!-- Generator: Adobe Illustrator 19.0.0, SVG Export Plug-In . SVG Version: 6.00 Build 0)  -->
<svg version="1.1" id="Слой_3" xmlns="http://www.w3.org/2000/svg" xmlns:xlink="http://www.w3.org/1999/xlink" x="0px" y="0px"
	 viewBox="-21 126.3 797.3 343" style="enable-background:new -21 126.3 797.3 343;" xml:space="preserve">
<style type="text/css">
	.st0{opacity:0.9;}
	.st1{fill:#FFFFFF;}
	.st2{opacity:0.8;}
</style>
<g id="XMLID_15_" class="st0">
	<path id="XMLID_112_" class="st1" d="M376.7,380.4h-42.5v26.8h50.2V428h-77.2V316h77.3v20.8h-50.3v23.6h42.5V380.4z"/>
	<path id="XMLID_114_" class="st1" d="M487.1,414.1c-4.2,4.6-10.2,8.3-18.2,11.2c-8,2.8-16.8,4.2-26.3,4.2
		c-14.7,0-26.4-4.5-35.2-13.5c-8.8-9-13.5-21.5-14.1-37.5l-0.1-9.7c0-11,1.9-20.7,5.8-28.9c3.9-8.2,9.5-14.6,16.7-19
		c7.3-4.4,15.7-6.7,25.2-6.7c13.9,0,24.8,3.2,32.5,9.6s12.2,15.9,13.5,28.6h-26c-0.9-6.3-2.9-10.7-6-13.4c-3.1-2.7-7.4-4-13.1-4
		c-6.8,0-12,2.9-15.7,8.6s-5.6,13.9-5.6,24.6v6.8c0,11.2,1.9,19.6,5.7,25.2c3.8,5.6,9.8,8.4,18,8.4c7,0,12.3-1.6,15.7-4.7v-17.4
		h-18.8V368h45.8v46.1H487.1z"/>
	<path id="XMLID_116_" class="st1" d="M593.4,390c-0.4,7.8-2.5,14.7-6.3,20.7s-9.2,10.6-16.2,13.9c-6.9,3.3-14.9,4.9-23.8,4.9
		c-14.7,0-26.3-4.8-34.8-14.4s-12.7-23.1-12.7-40.6V369c0-11,1.9-20.6,5.7-28.8c3.8-8.2,9.3-14.6,16.5-19.1s15.5-6.7,24.9-6.7
		c13.6,0,24.5,3.6,32.8,10.7c8.3,7.2,12.9,17,14.1,29.6h-26.9c-0.2-6.8-1.9-11.7-5.2-14.7c-3.2-3-8.2-4.5-14.8-4.5
		c-6.7,0-11.6,2.5-14.8,7.5c-3.1,5-4.8,13.1-4.9,24.1v7.9c0,12,1.5,20.5,4.5,25.6s8.2,7.7,15.5,7.7c6.2,0,10.9-1.5,14.2-4.4
		s5-7.6,5.2-13.9L593.4,390L593.4,390z"/>
	<path id="XMLID_118_" class="st1" d="M608,416.3c0-3.7,1.3-6.8,3.8-9.1c2.5-2.3,5.7-3.5,9.5-3.5c3.9,0,7,1.2,9.6,3.5
		c2.5,2.3,3.8,5.4,3.8,9.1s-1.3,6.7-3.7,9c-2.5,2.3-5.7,3.5-9.6,3.5c-3.9,0-7-1.2-9.5-3.5C609.2,423,608,420,608,416.3z"/>
	<path id="XMLID_120_" class="st1" d="M725.2,383.3h-43.5v44.6h-27v-112h74.9v20.8h-47.9v25.8h43.5V383.3z"/>
	<path id="XMLID_122_" class="st1" d="M769.6,427.9h-26.9v-112h26.9V427.9z"/>
</g>
<g id="XMLID_16_">
	<path id="XMLID_40_" class="st1" d="M307.1,279.6v-61.5H326c8.1,0,14.5,2.5,19.4,7.4c4.9,4.9,7.3,11.3,7.3,19.2v8.4
		c0,7.9-2.4,14.2-7.3,19.2c-4.9,4.9-11.3,7.4-19.4,7.4h-18.9V279.6z M315.5,224.7v48.4H326c5.7,0,10.2-1.9,13.5-5.6
		s4.9-8.5,4.9-14.4v-8.5c0-5.8-1.6-10.6-4.9-14.3s-7.8-5.6-13.5-5.6C326,224.7,315.5,224.7,315.5,224.7z"/>
	<path id="XMLID_49_" class="st1" d="M381.6,280.5c-6.4,0-11.4-2.1-15.2-6.4c-3.8-4.2-5.6-9.7-5.6-16.5v-1.9
		c0-6.5,1.9-11.9,5.8-16.2s8.5-6.5,13.8-6.5c6.2,0,10.8,1.9,14,5.6s4.7,8.7,4.7,14.9v5.2h-29.7l-0.1,0.2c0.1,4.4,1.2,8,3.3,10.8
		c2.1,2.8,5.1,4.2,9,4.2c2.8,0,5.3-0.4,7.4-1.2c2.1-0.8,4-1.9,5.5-3.3l3.3,5.4c-1.6,1.6-3.8,3-6.5,4
		C388.6,280,385.4,280.5,381.6,280.5z M380.3,239.6c-2.8,0-5.2,1.2-7.1,3.5c-2,2.3-3.2,5.3-3.6,8.8l0.1,0.2h21.1V251
		c0-3.3-0.9-6-2.6-8.2C386.3,240.7,383.7,239.6,380.3,239.6z"/>
	<path id="XMLID_52_" class="st1" d="M434.9,267.5c0-1.8-0.7-3.3-2.1-4.5c-1.4-1.2-4-2.2-7.9-3.1c-5.6-1.2-9.7-2.8-12.5-4.9
		s-4.2-4.9-4.2-8.5c0-3.7,1.6-6.9,4.7-9.5c3.2-2.6,7.3-3.9,12.3-3.9c5.3,0,9.6,1.4,12.7,4.1s4.6,6.1,4.5,10l-0.1,0.3h-7.9
		c0-2-0.8-3.8-2.5-5.4c-1.7-1.6-3.9-2.4-6.7-2.4c-3,0-5.2,0.6-6.6,1.9s-2.2,2.9-2.2,4.7s0.6,3.2,1.9,4.3c1.3,1,3.8,2,7.7,2.8
		c5.8,1.2,10.1,2.9,12.9,5s4.2,5,4.2,8.6c0,4.1-1.6,7.3-4.9,9.8s-7.6,3.8-12.9,3.8c-5.8,0-10.4-1.5-13.8-4.4
		c-3.4-3-4.9-6.4-4.8-10.4l0.1-0.3h7.9c0.1,2.9,1.2,5.1,3.3,6.5c2.1,1.4,4.5,2,7.2,2c3,0,5.3-0.6,7-1.8
		C434.1,271,434.9,269.4,434.9,267.5z"/>
	<path id="XMLID_61_" class="st1" d="M462.6,222.2h-8.3v-8.5h8.3V222.2z M462.6,279.6h-8.3v-45.7h8.3V279.6z"/>
	<path id="XMLID_64_" class="st1" d="M473.6,257.6c0-7.4,1.6-13.3,4.8-17.8c3.2-4.5,7.6-6.8,13.3-6.8c2.9,0,5.5,0.6,7.6,1.8
		c2.2,1.2,4,2.9,5.5,5l1-6h6.6v46c0,5.9-1.7,10.4-5.1,13.5c-3.4,3.1-8.3,4.7-14.7,4.7c-2.2,0-4.6-0.3-7.1-0.9
		c-2.6-0.6-4.8-1.4-6.7-2.5l2.1-6.5c1.5,0.8,3.3,1.5,5.4,2s4.2,0.8,6.3,0.8c4.1,0,7-0.9,8.9-2.8c1.8-1.8,2.8-4.7,2.8-8.4v-5.2
		c-1.5,1.9-3.3,3.4-5.4,4.3c-2.1,1-4.5,1.5-7.2,1.5c-5.6,0-10-2-13.2-6.1s-4.8-9.4-4.8-15.9L473.6,257.6L473.6,257.6z M481.9,258.5
		c0,4.6,1,8.3,2.9,11.1c1.9,2.8,4.9,4.2,8.9,4.2c2.5,0,4.6-0.6,6.3-1.7c1.7-1.1,3.1-2.8,4.2-4.8v-21c-1.1-1.9-2.5-3.5-4.2-4.6
		c-1.7-1.1-3.8-1.7-6.2-1.7c-4,0-6.9,1.7-8.9,5s-3,7.6-3,12.8V258.5z"/>
	<path id="XMLID_99_" class="st1" d="M532,233.9l0.6,6.8c1.5-2.4,3.4-4.3,5.7-5.6s4.9-2,7.8-2c4.9,0,8.7,1.4,11.5,4.3
		c2.7,2.9,4.1,7.3,4.1,13.4v28.9h-8.3V251c0-4-0.8-6.9-2.4-8.6c-1.6-1.7-4-2.5-7.3-2.5c-2.4,0-4.5,0.6-6.4,1.7
		c-1.8,1.2-3.3,2.7-4.4,4.7v33.3h-8.3v-45.7C524.6,233.9,532,233.9,532,233.9z"/>
	<path id="XMLID_101_" class="st1" d="M592.8,280.5c-6.4,0-11.4-2.1-15.2-6.4c-3.8-4.2-5.6-9.7-5.6-16.5v-1.9
		c0-6.5,1.9-11.9,5.8-16.2c3.9-4.3,8.5-6.5,13.8-6.5c6.2,0,10.8,1.9,14,5.6s4.7,8.7,4.7,14.9v5.2h-29.7l-0.1,0.2
		c0.1,4.4,1.2,8,3.3,10.8c2.1,2.8,5.1,4.2,9,4.2c2.8,0,5.3-0.4,7.4-1.2c2.1-0.8,4-1.9,5.5-3.3l3.3,5.4c-1.6,1.6-3.8,3-6.5,4
		S596.6,280.5,592.8,280.5z M591.5,239.6c-2.8,0-5.2,1.2-7.1,3.5c-2,2.3-3.2,5.3-3.6,8.8l0.1,0.2H602V251c0-3.3-0.9-6-2.6-8.2
		C597.5,240.7,594.9,239.6,591.5,239.6z"/>
	<path id="XMLID_104_" class="st1" d="M617.6,257.6c0-7.4,1.6-13.3,4.7-17.8c3.1-4.5,7.5-6.8,13.2-6.8c2.7,0,5,0.5,7.1,1.5
		s3.8,2.4,5.3,4.3v-25.1h8.3v65.9h-6.8l-1-5.6c-1.5,2.1-3.3,3.8-5.5,4.9s-4.7,1.6-7.6,1.6c-5.6,0-9.9-2-13.1-6.1
		c-3.2-4-4.7-9.4-4.7-16L617.6,257.6L617.6,257.6z M626,258.5c0,4.6,0.9,8.3,2.8,11.1c1.9,2.8,4.8,4.2,8.8,4.2
		c2.5,0,4.6-0.6,6.3-1.7c1.7-1.1,3.1-2.7,4.1-4.7v-21.3c-1.1-1.9-2.5-3.4-4.2-4.5c-1.7-1.1-3.8-1.7-6.1-1.7c-4,0-7,1.6-8.9,4.9
		s-2.9,7.6-2.9,12.8v0.9H626z"/>
	<path id="XMLID_107_" class="st1" d="M729.3,258.5c0,6.6-1.6,11.9-4.8,16c-3.2,4-7.5,6.1-13.1,6.1c-3,0-5.6-0.6-7.9-1.8
		c-2.2-1.2-4.1-2.9-5.5-5.2l-1,6h-6.8v-65.9h8.3v25.6c1.4-2,3.2-3.6,5.3-4.6c2.1-1.1,4.6-1.6,7.5-1.6c5.6,0,10,2.3,13.2,6.8
		s4.7,10.4,4.7,17.8L729.3,258.5L729.3,258.5z M721,257.6c0-5.2-1-9.5-2.9-12.8s-4.9-5-8.8-5c-2.6,0-4.7,0.6-6.5,1.9s-3.2,2.9-4.2,5
		v19.8c1.1,2.3,2.5,4,4.2,5.3c1.7,1.3,3.9,1.9,6.6,1.9c3.9,0,6.8-1.4,8.7-4.2c1.9-2.8,2.9-6.5,2.9-11.1V257.6z"/>
	<path id="XMLID_110_" class="st1" d="M753,262.7l1.5,5.7h0.3l11.2-34.5h9.3L756,286.6c-1.2,3.1-2.8,5.7-5,8
		c-2.2,2.3-5.1,3.4-8.7,3.4c-0.7,0-1.5-0.1-2.6-0.2c-1.1-0.1-1.8-0.3-2.4-0.4l0.8-6.5c-0.2,0,0.3,0,1.5,0.1s1.9,0.1,2.2,0.1
		c1.8,0,3.2-0.8,4.4-2.4c1.1-1.6,2.1-3.3,2.8-5.2l2-4.8l-17-44.8h9.3L753,262.7z"/>
</g>
<g id="XMLID_84_" class="st2">
	<path id="XMLID_87_" class="st1" d="M230.1,219.6l2.2,0.7l-40.2,40.2c-1.7-2.6-3.6-5-5.6-7.2c-0.2-0.2-0.3-0.3-0.4-0.5l42.2-40.4
		c1.3,3.4,1.2,6.4,1.2,6.4v0.6L230.1,219.6z"/>
	<path id="XMLID_86_" class="st1" d="M240.8,211.9l-1.8,1.8c-1.7-2.2-3.7-4.3-5.6-6.1l1.6-1.5C238.6,206.6,240.6,208.5,240.8,211.9z
		"/>
	<path id="XMLID_85_" class="st1" d="M260.1,238.2c0,0-13.2,17.8-33.6,17.8c-0.3,0-0.7,0-1,0c0,0,4.5-4.7,4.3-10.5
		c0,0,15.7-5.8,6.3-24.8l-3.1-1l-2.6-0.8c0,0,0.1-3.3-1.4-7c-0.9-2.4-2.5-5-5.2-7l1.7-2.8c0,0,3.5,2.4,7.4,6.1
		c1.9,1.8,3.9,3.8,5.6,6.1c0.6,0.8,1.1,1.5,1.7,2.3C245.3,224.4,252,235.3,260.1,238.2z"/>
</g>
<g id="XMLID_80_" class="st2">
	<path id="XMLID_83_" class="st1" d="M64.1,213.6l-1.8-1.8c0.3-3.3,2.3-5.2,5.8-5.8l1.7,1.6C67.8,209.3,65.8,211.4,64.1,213.6z"/>
	<path id="XMLID_82_" class="st1" d="M109.1,245.1c-2,1.3-3.7,2.7-4.6,3.4c-0.7-1-2.1-3.2-3.3-5.2l-0.3-0.7v-0.1l0,0l-0.4-0.9
		l-1.2-2.8l-0.3,3c-0.1,1.8-0.4,3.7-0.8,5.7l-27.4-27.2l2.2-0.7l0.6-0.2v-0.6c0-0.1,0-3,1.2-6.4L109.1,245.1z"/>
	<path id="XMLID_81_" class="st1" d="M74.2,211.8c-1.5,3.7-1.4,7-1.4,7l-2.6,0.8l-3.1,1c-9.3,19.1,6.3,24.8,6.3,24.8
		c-0.3,5.8,4.3,10.5,4.3,10.5c-0.3,0-0.7,0-1,0c-20.4,0-33.6-17.8-33.6-17.8c8-2.8,14.8-13.8,19.9-21.7c0.5-0.8,1.1-1.6,1.7-2.3
		c1.7-2.2,3.7-4.3,5.6-6.1c3.9-3.7,7.4-6.1,7.4-6.1l1.7,2.8C76.7,206.8,75.1,209.4,74.2,211.8z"/>
</g>
<g id="XMLID_73_" class="st2">
	<path id="XMLID_79_" class="st1" d="M119.1,330.5c1,0.9,2,1.8,3,2.6l-16.9,16.3c-2.5-1.5-4.3-3-5.7-4.5l17.5-16.5
		C117.6,329.1,118.4,329.8,119.1,330.5z"/>
	<path id="XMLID_78_" class="st1" d="M114.7,325.7c0.6,0.7,1.1,1.4,1.7,2l-17.5,16.5c-1.3-1.4-2.5-3.1-3.7-5.3l17.1-16.5
		c0.1,0.1,0.1,0.2,0.2,0.2l0.1,0.1C113.2,323.8,113.9,324.8,114.7,325.7z"/>
	<path id="XMLID_77_" class="st1" d="M109.2,353l-3.2,3.1c0,0-0.1,0-0.2,0c-2.9-1.3-5.6-2.9-8-5l0,0l0,0c-0.1,0-0.1-0.1-0.1-0.1l0,0
		c0,0-0.1,0-0.1-0.1c-0.8-0.7-1.5-1.4-2.3-2.1c-0.7-0.8-1.5-1.6-2.1-2.4c0,0,0,0-0.1-0.1l-0.1-0.1l0,0c-2-2.5-3.5-5.3-4.7-8.2v-0.1
		l3.2-3.1l0.4,0.7c0.5,1,1.1,2.2,1.8,3.4c0,0,0,0.1,0.1,0.1l0.1,0.2l0,0c1.6,2.9,3,4.9,4.7,6.5c1.6,1.7,3.5,3.2,6.3,4.9l0,0l0,0
		c0.1,0,0.1,0.1,0.2,0.1c0,0,0.1,0,0.1,0.1c1.1,0.7,2.2,1.3,3.3,1.9L109.2,353z"/>
	<path id="XMLID_76_" class="st1" d="M96.7,351.6l-13.6,11.7c-0.4-0.5-0.9-1.1-1.3-1.5c-0.5-0.5-1-1-1.5-1.4l12.2-13.2
		C93.8,348.8,95.2,350.3,96.7,351.6z"/>
	<path id="XMLID_75_" class="st1" d="M84.8,368.7l-2.1,2.1c-0.1-0.2-0.2-0.5-0.4-0.8c-1.2-2.5-2.3-4.1-3.5-5.4
		c-1.5-1.5-3.4-2.7-5.1-3.6c-0.3-0.2-0.6-0.3-0.8-0.5l2.2-2.1c0,0,0.2-0.1,0.2,0c1.5,0.7,2.9,1.6,4.2,2.6c1.1,0.9,2.1,2,3,3.1l0,0
		l0,0c1,1.3,1.8,2.8,2.4,4.3C84.9,368.5,84.9,368.6,84.8,368.7z"/>
	<path id="XMLID_74_" class="st1" d="M78.1,365.3c1.1,1.1,2,2.5,3,4.5c-1.4,0.9-3.3-0.7-3.4-0.7l-0.2-0.2c-0.1-0.1-0.2-0.1-0.3,0
		l-0.2,0.2c-1.1,1.1-2.8,0.2-3,0.1c-0.2-0.4-0.8-2,0.2-3l0.2-0.2c0.1-0.1,0.1-0.2,0-0.3l-0.2-0.2c-0.2-0.2-1.5-2.1-0.6-3.4
		C75.2,363.1,76.8,364,78.1,365.3z"/>
</g>
<g id="XMLID_66_" class="st2">
	<path id="XMLID_72_" class="st1" d="M204.3,345.5c-1.4,1.5-3.3,2.9-5.7,4.5l-17.8-17.2c1.8-1.4,3.6-2.9,5.3-4.5L204.3,345.5z"/>
	<path id="XMLID_71_" class="st1" d="M208.6,339.5c-1.3,2.2-2.5,3.9-3.7,5.3l-18.2-17.2c0.4-0.4,0.8-0.8,1.1-1.2
		c1-1.1,2-2.3,2.9-3.5c0.1-0.1,0.2-0.3,0.3-0.4L208.6,339.5z"/>
	<path id="XMLID_70_" class="st1" d="M215.4,338.5c-1.1,2.9-2.7,5.7-4.7,8.2l0,0l-0.1,0.1c0,0,0,0-0.1,0.1c-0.7,0.8-1.4,1.6-2.1,2.4
		c-0.7,0.8-1.5,1.5-2.3,2.1c0,0-0.1,0-0.1,0.1l0,0c-0.1,0-0.1,0.1-0.2,0.1l0,0c-2.4,2-5.1,3.7-8,5c0,0-0.1,0-0.2,0l-3.2-3.1l0.7-0.4
		c1.1-0.6,2.2-1.2,3.3-1.9c0,0,0.1,0,0.1-0.1c0.1,0,0.1-0.1,0.2-0.1h0.1l0,0c2.8-1.7,4.8-3.2,6.3-4.9c1.6-1.6,3.1-3.6,4.7-6.5l0,0
		l0.1-0.2c0,0,0-0.1,0.1-0.1l0,0c0.6-1.2,1.3-2.4,1.8-3.4l0.4-0.7l3.2,3.1C215.4,338.4,215.4,338.5,215.4,338.5z"/>
	<path id="XMLID_69_" class="st1" d="M211.2,347.8l12.2,13.2c-0.5,0.4-1,0.9-1.5,1.4s-0.9,1-1.3,1.5L207,352.1
		C208.5,350.8,210,349.4,211.2,347.8z"/>
	<path id="XMLID_68_" class="st1" d="M230.9,361.1c-0.3,0.2-0.6,0.3-0.8,0.5c-1.7,0.9-3.7,2.1-5.1,3.6c-1.3,1.3-2.4,2.9-3.6,5.4
		c-0.1,0.3-0.2,0.5-0.4,0.8l-2.1-2.1c0,0-0.1-0.2,0-0.2c0.6-1.5,1.4-3,2.4-4.3l0,0c0.9-1.2,1.9-2.2,3-3.1c1.3-1.1,2.7-1.9,4.2-2.6
		c0,0,0,0,0.1,0s0.1,0,0.2,0L230.9,361.1z"/>
	<path id="XMLID_67_" class="st1" d="M229.5,366.8c1.1,1,0.4,2.6,0.2,3c-0.3,0.2-2,0.9-3-0.1l-0.2-0.2c-0.1-0.1-0.2-0.1-0.3,0
		l-0.2,0.2c0,0-2,1.6-3.4,0.7c1-2.1,1.9-3.4,3.1-4.5c1.3-1.3,2.8-2.3,4.3-3.1c0.9,1.3-0.4,3.2-0.6,3.4l-0.2,0.2
		c-0.1,0.1-0.1,0.2,0,0.3L229.5,366.8z"/>
</g>
<path id="XMLID_3_" class="st1" d="M245.5,284.4l-13.9-2.4l-32.3-5.6c0.1,0.3,0.2,0.6,0.2,0.9c0.2,0.9,0.4,1.7,0.6,2.5v0.1
	c0,0.1,0,0.1,0,0.2L302.6,298H201v0.1v0.1v0.1c-0.1,0.5-0.1,0.9-0.2,1.4c0,0.2-0.1,0.5-0.1,0.7c0,0.2-0.1,0.5-0.1,0.7
	c0,0.1,0,0.3-0.1,0.4c-0.1,0.4-0.1,0.7-0.2,1.1l-0.2,0.8L200,304c0,0.1,0,0.2-0.1,0.2c0,0.2-0.1,0.3-0.1,0.5l-0.2,0.7
	c-1.1,3.9-2.6,7.7-4.6,11.1c-0.1,0.2-0.3,0.5-0.4,0.7c-0.7,1.1-1.4,2.3-2.2,3.4l41-7.1l68.8-12l20.9-3.6L245.5,284.4z M174.3,336.9
	L174.3,336.9L174.3,336.9l-2.1,1.1l0,0l0,0l-0.7,0.3h-0.1h-0.1l-0.5,0.2l-6.8,38.8L151.5,449V342.8h-0.8h-0.4l0,0h-0.4h-1.6h-0.4
	h-0.2c-0.2,0-0.2,0-0.3,0l0,0l-0.7-0.1l-0.7-0.1h-0.4h-0.2l0,0l0,0h-0.2l-0.5-0.1c-0.9-0.1-1.9-0.2-2.8-0.4l-0.8-0.1l-0.4-0.1l0,0
	l0,0l-0.4-0.1l-1.5-0.4c-0.4-0.1-0.8-0.2-1.2-0.3c-0.1,0-0.3-0.1-0.4-0.1l-0.8-0.2c-0.3-0.1-0.5-0.2-0.8-0.3
	c-0.6-0.2-1.1-0.4-1.5-0.5l0,0l0,0l-1.5-0.6c-0.2-0.1-0.4-0.2-0.6-0.2l-0.2-0.1c-0.1-0.1-0.2-0.1-0.4-0.2c-0.1-0.1-0.2-0.1-0.4-0.2
	s-0.3-0.1-0.5-0.2c-0.3-0.1-0.7-0.3-1-0.5l-1.2-0.6l23,132l13.5-77.5l0,0l2.4-13.7V378l0.1-0.6l7.1-40.7
	C174.6,336.7,174.5,336.8,174.3,336.9z M151.6,297.9L151.6,297.9L151.6,297.9L151.6,297.9L151.6,297.9z M171.6,241.5l-4.1-23.6
	l-2.4-13.9l-13.6-77.6l-19,109.2c0.3-0.1,0.6-0.1,0.9-0.2c0.8-0.1,1.6-0.3,2.5-0.4c0.1,0,0.2,0,0.2,0l15.4-88.4v88.3h0.1l0,0
	c1,0.1,2,0.3,3,0.5c1.1,0.2,2.3,0.5,3.4,0.7c0.3,0.1,0.6,0.1,0.8,0.2l0,0l0,0l0.6,0.2c0.5,0.1,1,0.3,1.5,0.4l0.5,0.2l0,0l0,0
	l0.5,0.2c0.3,0.1,0.7,0.2,1.1,0.4c1.7,0.6,3.4,1.3,5,2c1,0.4,1.8,0.9,2.6,1.3C171.1,241.3,171.4,241.4,171.6,241.5L171.6,241.5z
	 M109.4,317.5L109.4,317.5l-0.1-0.1c-0.1-0.2-0.2-0.3-0.3-0.5L75.4,311L0.3,297.9h104.2v-0.3c0-0.4,0-0.9,0-1.4v-0.8l0,0l0,0l0,0
	c0,0,0-0.1,0-0.2V295v-0.4l0.1-0.7v-0.4l0,0l0,0v-0.1c0-0.1,0-0.2,0-0.3l0.2-1.6c0-0.2,0.1-0.5,0.1-0.7v-0.1v-0.1l0,0l0.1-0.7
	l0.1-0.8l0,0l0,0l0.5-1.9l0,0l0,0l0.1-0.4l0.4-1.5l0,0l0,0l0.5-1.5c0.6-1.7,1.3-3.4,2.2-5c0.4-0.8,0.9-1.7,1.5-2.6l0,0l0.1-0.2
	l0.2-0.3c0.1-0.1,0.1-0.2,0.2-0.3l-47.1,7.9l-6,1.1l-77.6,13.5l77.5,13.5l13.9,2.4l39.6,6.9c-0.1-0.1-0.1-0.2-0.2-0.4
	C110.3,319.4,109.8,318.4,109.4,317.5z"/>
<path id="logo_3_" class="st1" d="M200.6,291.3c0,0.8,0,1.6-0.1,2.4v0.4c0,0.1,0,0,0,0.3v0.2v0.7c0,0.4-0.1,0.9-0.1,1.3
	c0,0.2,0,0.5-0.1,0.7l-0.1,0.6v0.1c-0.1,0.5-0.1,1-0.2,1.5c-0.1,0.5-0.2,1-0.3,1.4c-0.1,0.5-0.2,1-0.3,1.4c-0.1,0.5-0.2,0.9-0.3,1.4
	c-0.1,0.2-0.1,0.5-0.2,0.7l-0.2,0.7c-1.1,3.8-2.6,7.5-4.5,10.9c-0.1,0.2-0.3,0.5-0.4,0.7c-0.8,1.4-1.6,2.7-2.6,4l0,0
	c-0.3,0.4-0.6,0.8-0.8,1.1c-0.1,0.2-0.2,0.3-0.4,0.5c-0.9,1.2-1.9,2.3-2.9,3.4c-0.4,0.4-0.8,0.8-1.1,1.2c-0.2,0.2-0.4,0.4-0.6,0.6
	c-1.7,1.6-3.4,3.1-5.3,4.5c-0.7,0.5-1.5,1.1-2.2,1.6c-0.9,0.5-1.7,1.1-2.6,1.6c-0.1,0-0.2,0.1-0.3,0.2c-0.1,0-0.1,0.1-0.2,0.1l0,0
	c-0.3,0.2-0.6,0.3-0.9,0.5l-2.1,1l-0.7,0.3l-0.2,0.1l0,0l-1.2,0.5c-0.5,0.2-1,0.4-1.4,0.6c-0.5,0.2-1,0.4-1.5,0.5l-1.5,0.5
	c-0.2,0.1-0.4,0.1-0.5,0.2l-1,0.3l-0.8,0.2c-0.2,0.1-0.5,0.1-0.8,0.2l-1.5,0.4c-0.5,0.1-1,0.2-1.5,0.3c-0.3,0.1-0.7,0.1-1,0.2
	c-0.2,0-0.4,0.1-0.6,0.1l-1.5,0.2l-0.8,0.1c-0.3,0-0.5,0-0.8,0.1l-1.2,0.1c-0.5,0-1.4,0.1-1.9,0.1l0,0h-0.8h-0.4h-0.4h-1.6h-0.4
	h-0.2c-0.2,0-0.2,0-0.3,0l-0.7-0.1l-0.7-0.1h-0.4h-0.2h-0.2c-1.1-0.1-2.2-0.3-3.2-0.5l-0.8-0.1l-0.4-0.1l-0.4-0.1l-1.5-0.4
	c-0.5-0.1-1-0.3-1.5-0.4l-0.8-0.2c-0.3-0.1-0.5-0.2-0.8-0.3c-0.5-0.2-1-0.3-1.5-0.5l-1.5-0.6c-0.3-0.1-0.5-0.2-0.7-0.3
	s-0.5-0.2-0.7-0.3c-0.5-0.2-1-0.4-1.4-0.7l-1.4-0.7c-0.1-0.1-0.2-0.1-0.3-0.2l0,0c-0.2-0.1-0.5-0.3-0.7-0.4l0,0
	c-0.1-0.1-0.3-0.1-0.4-0.2c-0.2-0.1-0.5-0.3-0.7-0.4l-0.7-0.4c-0.4-0.3-0.9-0.6-1.3-0.9c-0.7-0.5-1.3-0.9-1.9-1.4
	c-1-0.8-2.1-1.7-3-2.6c-0.7-0.7-1.4-1.4-2.1-2.1c-0.2-0.2-0.4-0.4-0.6-0.6c-0.6-0.6-1.1-1.3-1.7-1.9c-0.7-0.9-1.5-1.9-2.1-2.9l0,0
	c-0.1-0.1-0.2-0.3-0.3-0.4c-0.2-0.3-0.4-0.6-0.6-0.9l0,0c-0.2-0.3-0.4-0.6-0.6-0.9c-0.6-1-1.1-2-1.6-3l0,0c-0.4-0.9-0.9-1.8-1.2-2.7
	c-0.8-2-1.5-4-2-6.1c-0.9-3.4-1.3-6.9-1.4-10.3l0,0V298c0-0.5,0-0.9,0-1.4v-0.8c0-0.1,0-0.1,0-0.3v-0.2v-0.4l0.1-0.7v-0.4
	c0-0.1,0-0.2,0-0.4l0.2-1.6c0-0.3,0.1-0.5,0.1-0.8l0,0l0.1-0.8l0.1-0.8l0.5-1.9l0.1-0.4l0.4-1.5l0.5-1.5c0.6-1.7,1.3-3.3,2.1-4.9
	c0.5-0.9,1-1.8,1.5-2.6l0,0c0.2-0.4,0.4-0.7,0.7-1c0.1-0.1,0.1-0.2,0.2-0.3l0,0c0.3-0.4,0.6-0.9,0.9-1.3c0.3-0.4,0.5-0.7,0.8-1
	c0.6-0.8,1.2-1.5,1.9-2.2c0.1-0.1,0.2-0.2,0.3-0.3c1.1-1.2,2.3-2.4,3.6-3.4l0,0c0.1-0.1,0.3-0.2,0.4-0.4l0,0c0.9-0.7,1.8-1.4,2.7-2
	c1.5-1,3-1.9,4.6-2.7c0.2-0.1,0.3-0.2,0.5-0.2l0,0c0.1,0,0.2-0.1,0.3-0.1c0.1-0.1,0.3-0.1,0.4-0.2c0.2-0.1,0.3-0.2,0.5-0.2l0,0
	c0.8-0.4,1.7-0.7,2.6-1c0.7-0.3,1.5-0.5,2.3-0.7c0.5-0.1,1-0.3,1.5-0.4c0.1,0,0.2,0,0.3-0.1c0.4-0.1,0.8-0.2,1.2-0.3
	c1-0.2,2-0.4,3.1-0.5l0.8-0.1c0.3,0,0.5-0.1,0.8-0.1l1.5-0.1c0.5,0,1,0,1.5,0c0.2,0,0.4,0,0.6,0c0.1,0,0.1,0,0.2,0h0.8h0.8h0.4
	c0.2,0,0.2,0,0.2,0h0.2l1.4,0.1c0.5,0.1,1,0.1,1.6,0.2c0.3,0,0.5,0.1,0.8,0.1l0,0l0.7,0.1c2,0.4,3.9,0.9,5.8,1.6
	c3.8,1.4,7.2,3.5,10.2,6c0.3,0.2,0.5,0.5,0.8,0.7c0.3,0.3,0.6,0.6,0.9,0.9c1.1,1,2.1,2.2,3.1,3.3l0,0c0.2,0.3,0.5,0.6,0.7,0.9
	c0.3,0.5,0.7,0.9,1,1.4c0.2,0.3,0.5,0.7,0.7,1.1c0.1,0.2,0.2,0.3,0.3,0.5c0.2,0.3,0.4,0.7,0.6,1c0.1,0.1,0.2,0.3,0.2,0.4
	c0,0,0,0.1,0.1,0.1l0,0c0.2,0.3,0.4,0.7,0.5,1c0.2,0.4,0.4,0.8,0.6,1.2c0,0,0,0,0,0.1c0.2,0.4,0.4,0.9,0.6,1.3
	c0.3,0.7,0.5,1.3,0.7,2c0.1,0.2,0.1,0.3,0.2,0.5l0.1,0.4v0.1c0.1,0.4,0.2,0.8,0.3,1.2s0.2,0.8,0.3,1.3c0.2,0.9,0.4,1.8,0.5,2.8
	c0.1,0.5,0.1,0.9,0.2,1.4v0.3v0.3l0.1,0.7l0.1,0.7c0,0.3,0,0.5,0,0.8c0,0.3,0,0.5,0,0.8c0,0.5,0,0.9,0,1.4v0.2c0,0.1,0,0.2,0,0.2
	v0.3l-0.1,0.7c0,0.4-0.1,0.9-0.2,1.4l-0.1,0.7c0,0.1-0.1,0.3-0.1,0.4s0,0.2,0,0.3c-0.1,0.9-0.4,1.8-0.6,2.7
	c-0.5,1.8-1.1,3.4-1.8,5.1c-0.8,1.6-1.6,3.2-2.6,4.6c-0.1,0.2-0.2,0.3-0.3,0.5c-0.1,0.1-0.1,0.2-0.2,0.3c0,0,0,0.1-0.1,0.1
	c-0.1,0.1-0.2,0.3-0.3,0.4c-0.2,0.3-0.4,0.6-0.7,0.9c-0.1,0.2-0.3,0.3-0.4,0.5c-0.1,0.1-0.1,0.1-0.2,0.2c0,0,0,0,0,0.1l-0.1,0.1
	c-0.1,0.1-0.2,0.2-0.2,0.3c-0.3,0.3-0.5,0.6-0.8,0.8c-0.3,0.3-0.6,0.6-0.9,0.9c-0.2,0.2-0.5,0.5-0.7,0.7c-0.1,0.1-0.3,0.2-0.4,0.4
	l0,0c-0.3,0.3-0.7,0.6-1,0.9c-0.2,0.2-0.4,0.3-0.6,0.5c-0.1,0.1-0.1,0.1-0.2,0.2c-0.3,0.2-0.5,0.4-0.8,0.6c-0.1,0.1-0.1,0.1-0.2,0.2
	c-0.3,0.2-0.6,0.4-0.9,0.6c-0.3,0.2-0.6,0.4-0.9,0.5c-0.1,0-0.1,0.1-0.2,0.1c0,0,0,0-0.1,0c-0.3,0.2-0.7,0.4-1,0.6l0,0
	c-1.5,0.8-3,1.4-4.6,2c-0.4,0.1-0.8,0.3-1.2,0.4c-0.4,0.1-0.8,0.2-1.2,0.3c-0.8,0.2-1.6,0.4-2.4,0.5c-0.7,0.1-1.5,0.2-2.2,0.3
	l-1,0.1c-0.3,0-0.6,0-0.9,0c-0.2,0-0.5,0-0.7,0s-0.4,0-0.6,0c-0.6,0-1.2,0-1.7,0c-0.4,0-0.8-0.1-1.1-0.1c-0.4,0-0.8-0.1-1.2-0.1
	c-0.4-0.1-0.8-0.1-1.2-0.2c-0.3-0.1-0.7-0.1-1-0.2l0,0c0,0,0,0-0.1,0l0,0h-0.1c-0.3-0.1-0.7-0.2-1-0.2c-0.3-0.1-0.7-0.2-1-0.3l0,0
	c-0.3-0.1-0.6-0.2-0.9-0.3c0,0,0,0-0.1,0c-0.2-0.1-0.3-0.1-0.5-0.2c0,0-0.1,0-0.1-0.1c-0.4-0.2-0.8-0.3-1.2-0.5l0,0l0,0
	c-0.3-0.1-0.6-0.3-0.9-0.4c-0.1-0.1-0.3-0.1-0.4-0.2c-0.3-0.1-0.5-0.3-0.8-0.4c-0.1-0.1-0.3-0.1-0.4-0.2c-0.2-0.1-0.4-0.2-0.6-0.4
	c-0.1,0-0.1-0.1-0.2-0.1c-0.3-0.2-0.6-0.3-0.8-0.5c-0.2-0.2-0.5-0.3-0.7-0.5c-0.1-0.1-0.2-0.1-0.3-0.2l-0.3-0.2c0,0,0,0-0.1,0
	c-0.2-0.2-0.4-0.3-0.6-0.4c-0.2-0.2-0.4-0.3-0.6-0.5c-0.6-0.5-1.1-0.9-1.6-1.4c-1-1-1.9-2-2.8-3.1c-0.4-0.5-0.7-0.9-1-1.4l0,0
	c-0.1-0.1-0.1-0.1-0.2-0.2c-0.2-0.3-0.4-0.6-0.5-0.8l-0.3-0.4l-0.2-0.4c-0.2-0.3-0.4-0.7-0.5-1c-0.1-0.3-0.3-0.6-0.4-0.8l-0.1-0.1
	l0,0l0,0c0,0,0-0.1-0.1-0.1c0,0,0,0,0-0.1c-0.1-0.2-0.2-0.4-0.2-0.5s0-0.1-0.1-0.2s-0.1-0.2-0.1-0.3s-0.1-0.1-0.1-0.2V308
	c-0.1-0.2-0.1-0.4-0.2-0.6c-0.1-0.2-0.2-0.5-0.3-0.7c-0.1-0.3-0.2-0.5-0.2-0.8c-0.2-0.5-0.3-1-0.4-1.5c-0.1-0.3-0.1-0.5-0.2-0.8
	c-0.1-0.5-0.2-1-0.3-1.6c0-0.3-0.1-0.5-0.1-0.8c0-0.3-0.1-0.5-0.1-0.8c0-0.2-0.1-0.5-0.1-0.7c0-0.1,0-0.1,0-0.2c0-0.1,0-0.2,0-0.3
	s0-0.2,0-0.3c0-0.2,0-0.6,0-0.8c0-2.4,0.3-4.7,0.9-6.9c0.6-2,1.4-4,2.3-5.6c0.2-0.3,0.4-0.6,0.6-1l0,0l0,0l0.1-0.1
	c0.2-0.3,0.3-0.5,0.5-0.8c0.6-0.9,1.3-1.8,2.1-2.6c0.1-0.1,0.1-0.1,0.2-0.2c0,0,0.1,0,0.1-0.1c0.1-0.1,0.2-0.2,0.3-0.3
	s0.2-0.2,0.3-0.3c0.3-0.3,0.6-0.6,0.9-0.8l0,0c0.2-0.2,0.3-0.3,0.5-0.4c0.2-0.2,0.3-0.3,0.5-0.4l0,0c0,0,0,0,0.1,0l0.1-0.1
	c0.1-0.1,0.3-0.2,0.4-0.3c0.2-0.1,0.4-0.3,0.6-0.4c0.6-0.5,1.3-0.9,1.9-1.2c0.2-0.1,0.3-0.2,0.5-0.3s0.4-0.2,0.6-0.3
	c0.2-0.1,0.4-0.2,0.6-0.3c0.9-0.4,1.8-0.8,2.6-1.1l0,0c0.1,0,0.2-0.1,0.3-0.1c0.2-0.1,0.4-0.1,0.6-0.2c0.2-0.1,0.5-0.1,0.7-0.2
	s0.4-0.1,0.6-0.2c0.2-0.1,0.4-0.1,0.6-0.1c0.2,0,0.4-0.1,0.5-0.1c0.2,0,0.4-0.1,0.6-0.1c1.8-0.3,3.3-0.4,4.2-0.4h0.2
	c0.4,0,0.7,0,0.9,0s0.4,0,0.4,0s-0.1,0-0.4,0c-0.2,0-0.4,0-0.7,0c-0.1,0-0.3,0-0.4,0c-0.5,0-1.2,0.1-2.1,0.1c-0.3,0-0.6,0.1-0.9,0.1
	c-0.4,0.1-0.8,0.1-1.3,0.2c-0.2,0.1-0.5,0.1-0.7,0.2c-0.1,0-0.3,0.1-0.4,0.1h-0.1c-0.1,0-0.2,0-0.3,0.1c-0.3,0.1-0.6,0.2-0.9,0.3
	c-0.2,0.1-0.4,0.1-0.6,0.2c-0.2,0.1-0.4,0.1-0.6,0.2c-0.1,0-0.2,0.1-0.3,0.1c-0.1,0.1-0.2,0.1-0.4,0.1c-0.1,0-0.2,0.1-0.4,0.2
	c-0.1,0-0.2,0.1-0.3,0.1s-0.2,0.1-0.3,0.1c0,0-0.1,0-0.1,0.1c-0.2,0.1-0.3,0.1-0.5,0.2c-0.2,0.1-0.4,0.2-0.7,0.3
	c-1.4,0.7-2.9,1.7-4.4,2.9c-0.5,0.4-1,0.9-1.5,1.4c-0.3,0.3-0.6,0.6-0.9,0.9c-0.1,0.2-0.3,0.3-0.4,0.5c-0.1,0.2-0.3,0.3-0.4,0.5
	c-0.4,0.5-0.8,1-1.2,1.6c-0.1,0.2-0.2,0.3-0.3,0.5c-0.1,0.2-0.3,0.4-0.4,0.7c0,0.1-0.1,0.1-0.1,0.2c-0.2,0.3-0.4,0.7-0.6,1
	c-0.1,0.1-0.1,0.2-0.1,0.3v0.1c-0.6,1.3-1,2.6-1.4,4c-0.5,2-0.8,4.1-0.7,6.2c0-0.1,0-0.3,0-0.4c0,0.8,0,1.7,0,2.5
	c0,0.2,0,0.4,0.1,0.6c0.1,1.6,0.4,3.2,0.8,4.7c0.2,0.8,0.5,1.5,0.7,2.3c0.6,1.5,1.3,3,2.1,4.5l0.2,0.4l0.3,0.4
	c0.2,0.3,0.3,0.5,0.5,0.8c0,0.1,0.1,0.1,0.1,0.2c0.3,0.5,0.7,0.9,1,1.4c0.8,1,1.7,2,2.7,2.9c0.4,0.4,0.9,0.8,1.4,1.2l0,0
	c1.6,1.3,3.4,2.4,5.3,3.3c0.1,0,0.2,0.1,0.3,0.1c0.2,0.1,0.5,0.2,0.7,0.3c1,0.4,1.9,0.7,3,1c1.4,0.4,2.8,0.7,4.2,0.8
	c0.4,0,0.7,0.1,1.1,0.1c0.4,0,0.7,0,1.1,0.1c0.4,0,0.8,0,1.2,0c0.3,0,0.7,0,1,0s0.6,0,0.9-0.1c0.2,0,0.4,0,0.6,0
	c0.3,0,0.5-0.1,0.8-0.1c0.7-0.1,1.5-0.2,2.2-0.4c0.7-0.1,1.5-0.3,2.2-0.5c0.4-0.1,0.7-0.2,1.1-0.3c0.4-0.1,0.7-0.2,1.1-0.4
	c1.3-0.5,2.5-1,3.7-1.7c0.2-0.1,0.3-0.2,0.5-0.3c1.8-1,3.5-2.2,5.1-3.6l0,0c0.2-0.2,0.4-0.4,0.6-0.6c0.5-0.5,1-1,1.5-1.6l0,0
	c0,0,0,0,0.1-0.1l0.1-0.1c0.8-0.9,1.6-1.8,2.3-2.8l0,0l-0.1-0.1c0.1-0.1,0.1-0.2,0.2-0.3c0.9-1.4,1.6-2.8,2.3-4.3
	c0.6-1.5,1.2-3.1,1.6-4.7c0.2-0.8,0.4-1.6,0.5-2.4c0-0.1,0-0.2,0.1-0.3c0-0.1,0-0.2,0-0.3l0.1-0.6c0.1-0.4,0.1-0.8,0.1-1.2
	c0.1-0.8,0.1-1.5,0.1-2.3v-1.5c0-1.1,0-2.1-0.1-3.2l-0.1-0.6v-0.3v-0.3c-0.1-0.4-0.1-0.8-0.2-1.3c-0.2-0.8-0.3-1.7-0.5-2.5
	c-0.1-0.4-0.2-0.8-0.3-1.2c-0.4-1.3-0.8-2.5-1.3-3.7c-0.3-0.7-0.7-1.4-1-2.1c-0.1-0.2-0.2-0.4-0.3-0.6c-0.1-0.2-0.2-0.3-0.3-0.5
	c-0.1-0.2-0.2-0.4-0.4-0.6c0-0.1-0.1-0.1-0.1-0.2l0,0c-0.1-0.2-0.2-0.3-0.3-0.5c-0.2-0.4-0.5-0.7-0.7-1.1l0,0
	c-0.2-0.3-0.5-0.7-0.7-1l-0.1-0.1c-0.2-0.3-0.5-0.6-0.7-0.9c-0.2-0.2-0.4-0.5-0.6-0.7c-0.2-0.2-0.3-0.3-0.5-0.5l0,0
	c-0.2-0.2-0.4-0.4-0.6-0.7c-0.2-0.2-0.4-0.4-0.6-0.6c-0.2-0.2-0.3-0.3-0.5-0.5c-0.1-0.1-0.2-0.2-0.3-0.3c-0.2-0.2-0.4-0.3-0.5-0.5
	c-0.3-0.3-0.6-0.6-1-0.8c-2.8-2.2-5.9-4-9.3-5.2c-1.7-0.6-3.4-1-5.2-1.3l0,0l-0.7-0.1c-0.2,0-0.4-0.1-0.7-0.1l-1.3-0.1l-1.4-0.1
	h-0.2h-0.1h-0.3h-0.7h-0.7c-0.2,0-0.5,0-0.7,0c-0.5,0-0.9,0-1.4,0.1l-1.4,0.1c-0.2,0-0.5,0.1-0.7,0.1l-0.7,0.1
	c-1.8,0.3-3.6,0.7-5.3,1.2c-1,0.3-2.1,0.7-3.1,1.1l0,0c-0.3,0.1-0.5,0.2-0.8,0.3c-0.2,0.1-0.3,0.1-0.5,0.2l0,0
	c-0.2,0.1-0.5,0.2-0.7,0.4c-0.3,0.2-0.7,0.4-1,0.5c-0.3,0.2-0.6,0.3-0.9,0.5c-0.2,0.1-0.5,0.3-0.7,0.4c-0.2,0.1-0.4,0.2-0.6,0.4l0,0
	c-0.1,0.1-0.2,0.2-0.4,0.2c0,0-0.1,0-0.1,0.1c-0.4,0.2-0.7,0.5-1.1,0.7c-0.4,0.3-0.8,0.6-1.2,0.9c-0.3,0.2-0.6,0.4-0.8,0.7
	c-0.1,0-0.1,0.1-0.1,0.1c-0.3,0.3-0.7,0.6-1,0.9s-0.7,0.6-1,0.9l0,0c-0.3,0.3-0.6,0.6-0.9,0.9c-0.2,0.2-0.3,0.4-0.5,0.5
	c0,0,0,0,0,0.1c-0.2,0.2-0.4,0.4-0.5,0.6c-0.2,0.2-0.4,0.5-0.6,0.7l0,0l0,0c-0.3,0.4-0.6,0.8-1,1.2l-0.1,0.1l0,0l0,0
	c-0.1,0.1-0.2,0.2-0.3,0.4c-0.2,0.2-0.4,0.5-0.5,0.8l-0.1,0.1c0,0,0,0,0,0.1c-0.2,0.2-0.3,0.5-0.5,0.8c0,0.1-0.1,0.1-0.1,0.2
	c-0.1,0.1-0.2,0.3-0.2,0.4l-0.1,0.1c-0.3,0.5-0.6,1.1-0.9,1.6c-0.1,0.2-0.2,0.4-0.3,0.6c0,0,0,0.1-0.1,0.1c-0.1,0.2-0.2,0.5-0.4,0.7
	c-0.3,0.6-0.5,1.1-0.7,1.7c-0.1,0.2-0.2,0.5-0.3,0.7c0,0.1-0.1,0.3-0.1,0.4c-0.1,0.4-0.3,0.7-0.4,1.1l-0.4,1.3l-0.4,1.3l-0.1,0.3
	l-0.1,0.3l-0.1,0.7l-0.2,0.7l-0.1,0.7l-0.1,0.7c0,0.2-0.1,0.5-0.1,0.7l-0.1,1.3c0,0.1,0,0.2,0,0.4v0.4v0.7v0.4v0.2v0.1v0.4
	c0,0,0,0,0,0.1v0.2c0,0.3,0,0.6,0,0.9c0,0.4,0,0.9,0,1.3c0,0.1,0,0.3,0,0.4l0,0c0,0,0,0,0,0.1c0,0.8,0.1,1.5,0.2,2.3
	c0,0.3,0.1,0.7,0.1,1c0,0.1,0,0.2,0,0.3c0,0.3,0.1,0.6,0.1,0.8v0.1c0.1,0.3,0.1,0.7,0.2,1c0.1,0.4,0.1,0.7,0.2,1.1
	c0,0.2,0.1,0.4,0.1,0.6c0.1,0.3,0.1,0.5,0.2,0.8c0.1,0.3,0.1,0.6,0.2,0.9c0,0.1,0,0.1,0,0.1c0.5,1.7,1.1,3.4,1.8,5.1
	c0.8,1.7,1.6,3.3,2.6,4.9c0,0.1,0.1,0.1,0.1,0.2l0,0c0,0.1,0.1,0.2,0.1,0.2c0.1,0.1,0.2,0.3,0.3,0.4l0,0c0.6,0.9,1.3,1.9,2,2.7
	c0.2,0.3,0.5,0.6,0.7,0.9c0.1,0.1,0.3,0.3,0.4,0.4c1.1,1.2,2.2,2.4,3.4,3.5c1,0.9,2.1,1.7,3.1,2.5l0,0l0,0c0,0,0,0,0.1,0.1l0,0
	c0.4,0.3,0.8,0.5,1.1,0.8c0,0,0.1,0,0.1,0.1c0.3,0.2,0.7,0.4,1.1,0.7l0.6,0.4c0.2,0.1,0.4,0.2,0.6,0.3c0.1,0.1,0.3,0.2,0.4,0.2
	c0.2,0.1,0.4,0.2,0.6,0.3c0.1,0,0.1,0.1,0.2,0.1l0.4,0.2l0.6,0.3l0,0l0.2,0.1c0.4,0.2,0.8,0.4,1.2,0.6c0.4,0.2,0.8,0.4,1.3,0.5
	l1.3,0.5l1.3,0.4c0.2,0.1,0.4,0.1,0.6,0.2l0.7,0.2c0.4,0.1,0.9,0.2,1.3,0.3l1.3,0.3l0.3,0.1l0.3,0.1l0.7,0.1
	c0.9,0.2,1.7,0.2,2.6,0.3h0.2h0.2h0.4h0.7l0.7,0.1h0.6h1.4h0.3h0.3h0.7c0.1,0,0.1,0,0.2,0l0,0c0.4,0,0.7,0,1.1-0.1l1.3-0.1
	c0.2,0,0.5,0,0.7-0.1l0.7-0.1l1.3-0.2l1.3-0.3c0.4-0.1,0.9-0.2,1.3-0.3l1.3-0.3c0.2,0,0.4-0.1,0.5-0.1l0.7-0.2l0.6-0.2
	c0.2-0.1,0.4-0.1,0.6-0.2l1.2-0.5c0.4-0.1,0.8-0.3,1.2-0.5c0.4-0.2,0.8-0.3,1.2-0.5l1.2-0.6l0.6-0.3l0.6-0.3l0.4-0.2l0.6-0.3
	l0.2-0.1c0.3-0.2,0.6-0.4,0.9-0.5c0.3-0.2,0.6-0.4,0.9-0.5c0.1-0.1,0.2-0.1,0.3-0.2c0.4-0.3,0.8-0.5,1.2-0.8c0.5-0.4,1-0.7,1.5-1.1
	c0.3-0.2,0.5-0.4,0.8-0.6c0.2-0.1,0.4-0.3,0.5-0.4l0,0c1.1-0.9,2.2-2,3.3-3l0,0c0.4-0.4,0.9-0.9,1.3-1.4l0,0
	c0.1-0.1,0.2-0.2,0.3-0.3s0.1-0.1,0.2-0.2l0,0l0.1-0.1l0,0c0.1-0.1,0.2-0.2,0.2-0.3c0.5-0.6,1.1-1.2,1.6-1.9h-0.1
	c0.3-0.4,0.6-0.7,0.8-1.1c0.1-0.2,0.2-0.4,0.4-0.5l0,0c0.1-0.2,0.2-0.4,0.4-0.6c0.8-1.2,1.5-2.4,2.1-3.6c1.6-3,2.7-6.1,3.6-9.3
	l0.2-0.6c0-0.2,0.1-0.4,0.1-0.6l0.2-1.2c0.1-0.4,0.1-0.8,0.2-1.2c0.1-0.4,0.1-0.8,0.2-1.2c0-0.3,0.1-0.6,0.1-0.9l0,0
	c0-0.1,0-0.1,0-0.2l0.1-0.6c0-0.2,0-0.4,0.1-0.6c0-0.4,0.1-0.9,0.1-1.3v-0.7v-0.2v-0.1V294c0-0.6,0-1.2,0-1.8c0-0.2,0-0.4,0-0.7
	v-0.2c0-0.3,0-0.6,0-0.9v-0.1v-0.1c0-0.5-0.1-1.1-0.1-1.6c0-0.2,0-0.4-0.1-0.6c0-0.1,0-0.3,0-0.4c0-0.2,0-0.4-0.1-0.5
	c0-0.5-0.1-1-0.2-1.5c0-0.4-0.1-0.8-0.2-1.1c-0.1-0.7-0.3-1.4-0.4-2.1c-0.1-0.2-0.1-0.5-0.2-0.7c0-0.1-0.1-0.3-0.1-0.4
	c-0.1-0.3-0.1-0.5-0.2-0.8c0-0.1,0-0.2-0.1-0.2c-0.1-0.2-0.1-0.4-0.2-0.6c0-0.2-0.1-0.4-0.2-0.5c-0.1-0.2-0.1-0.3-0.2-0.5
	c-0.1-0.2-0.1-0.3-0.1-0.5l0,0c0-0.1-0.1-0.2-0.1-0.3v-0.1c-0.1-0.3-0.2-0.6-0.3-0.9c-0.1-0.2-0.2-0.4-0.2-0.6
	c-0.1-0.2-0.1-0.4-0.2-0.6l0,0c-0.1-0.2-0.1-0.3-0.2-0.5c-0.1-0.2-0.2-0.4-0.2-0.6c0-0.1,0-0.1-0.1-0.2l0,0
	c-0.1-0.2-0.1-0.3-0.2-0.5c-0.2-0.4-0.4-0.8-0.5-1.2c-0.1-0.3-0.2-0.5-0.4-0.8c0-0.1-0.1-0.1-0.1-0.2c-0.1-0.2-0.2-0.5-0.4-0.7
	c0-0.1-0.1-0.2-0.1-0.2c-0.1-0.2-0.3-0.5-0.4-0.7c0,0,0-0.1-0.1-0.1c-0.2-0.3-0.3-0.6-0.5-0.8l0,0c-0.1-0.3-0.3-0.5-0.4-0.7
	c-0.2-0.2-0.3-0.5-0.5-0.7c-0.2-0.3-0.4-0.6-0.5-0.8c-0.2-0.4-0.5-0.8-0.8-1.1c-0.1-0.2-0.3-0.4-0.4-0.6c-0.4-0.6-0.9-1.2-1.4-1.8
	c-0.2-0.3-0.5-0.6-0.7-0.9c-0.1-0.1-0.1-0.1-0.2-0.2c-0.2-0.3-0.5-0.6-0.7-0.8c-0.2-0.3-0.4-0.5-0.7-0.8c-0.1-0.1-0.2-0.2-0.2-0.3
	c-0.2-0.2-0.5-0.5-0.7-0.7c-0.1-0.1-0.1-0.1-0.2-0.2c-0.1-0.1-0.3-0.3-0.4-0.4c-0.2-0.2-0.4-0.4-0.6-0.5c-0.2-0.2-0.5-0.4-0.7-0.6
	c-0.2-0.2-0.4-0.3-0.5-0.5c-0.2-0.2-0.5-0.4-0.7-0.6c-0.2-0.2-0.4-0.4-0.7-0.5c-0.2-0.1-0.4-0.3-0.6-0.4l0,0l0,0
	c-0.2-0.2-0.4-0.3-0.6-0.5c-0.2-0.2-0.4-0.3-0.6-0.5c-0.4-0.3-0.7-0.5-1.1-0.8c-0.4-0.3-0.7-0.5-1.1-0.8c-0.2-0.1-0.3-0.2-0.5-0.3
	c-1.1-0.7-2.2-1.3-3.3-1.9c-1.7-0.9-3.5-1.7-5.2-2.3c-0.6-0.2-1.2-0.4-1.8-0.6c-0.3-0.1-0.6-0.2-0.9-0.3l-0.4-0.1l-0.4-0.1
	c-0.3-0.1-0.6-0.2-0.9-0.2c-0.3-0.1-0.6-0.2-0.9-0.2c-1.2-0.2-2.3-0.5-3.5-0.7c-0.4-0.1-0.8-0.1-1.2-0.2l0,0c-0.7-0.1-1.4-0.1-2-0.2
	c-0.3,0-0.6,0-0.9-0.1c-0.3,0-0.6,0-0.9-0.1h-0.5h-0.2h-0.9c-0.3,0-0.6,0-0.8,0c-0.4,0-0.9,0-1.3,0c-0.1,0-0.2,0-0.4,0h-0.1
	c-0.4,0-0.9,0-1.3,0.1l0,0l0,0c-0.4,0-0.7,0-1.1,0.1c0,0,0,0-0.1,0c-0.2,0-0.5,0-0.7,0.1l0,0c-0.1,0-0.1,0-0.2,0
	c-0.2,0-0.5,0.1-0.8,0.1c-0.2,0-0.5,0.1-0.7,0.1c-0.3,0-0.6,0.1-0.9,0.1c-0.2,0-0.4,0.1-0.6,0.1h-0.1l0,0c-0.1,0-0.1,0-0.1,0
	c-0.2,0-0.4,0.1-0.6,0.1c-0.2,0-0.5,0.1-0.7,0.1s-0.3,0.1-0.4,0.1c-0.3,0.1-0.6,0.1-0.9,0.2c-0.1,0-0.2,0-0.3,0.1
	c-0.5,0.1-0.9,0.2-1.4,0.3c-0.3,0.1-0.6,0.2-0.9,0.2l0,0c-0.4,0.1-0.8,0.2-1.2,0.3l0,0c-0.8,0.2-1.6,0.5-2.4,0.8
	c-0.2,0.1-0.4,0.1-0.6,0.2c-0.2,0.1-0.3,0.1-0.5,0.2c-0.2,0.1-0.5,0.2-0.7,0.3c-0.7,0.3-1.4,0.6-2.1,0.9c-0.1,0-0.1,0-0.2,0.1
	c-0.4,0.2-0.7,0.3-1.1,0.5c-0.3,0.2-0.7,0.4-1,0.5c-0.7,0.4-1.3,0.6-1.9,1c-0.1,0.1-0.2,0.1-0.3,0.2c-0.2,0.1-0.5,0.3-0.7,0.4
	c-0.1,0.1-0.3,0.1-0.4,0.2c-0.1,0.1-0.2,0.1-0.4,0.2c-0.3,0.2-0.5,0.4-0.8,0.5c-0.3,0.2-0.5,0.4-0.8,0.5c-0.3,0.2-0.5,0.3-0.7,0.5
	s-0.5,0.4-0.7,0.5c-0.5,0.3-0.9,0.6-1.3,0.9c-0.7,0.6-1.4,1.1-2,1.6c0,0.1,6.4,3.7,6.4,3.7l1,0.5l0,0c-3.5,0.2-7.4,0.9-11.3,1.8
	c-0.6,0.1-1.1,0.3-1.7,0.4h-0.1c-2.7,0.7-5.4,1.6-8,2.5c-1.9,0.7-3.7,1.4-5.4,2.1c-0.3,0.1-0.5,0.2-0.8,0.3c0,0,0,0-0.1,0
	c-0.2,0.1-0.4,0.2-0.5,0.2c0.1-0.2,0.2-0.4,0.3-0.7l0,0c0.7-1.4,1.3-3,2-4.6c1.4-3.4,2.7-7.2,3.8-10.8l0,0c0.3-1,0.5-1.9,0.8-2.9
	c0.2-0.8,0.4-1.7,0.6-2.5c0.5-2.2,0.8-4.3,1-6.3l0.4,0.9l0,0l0,0l0.3,0.7c0,0,3.7,6,3.9,6l0,0c0,0,2.3-1.9,5.2-3.9
	c0,0,0.1,0,0.1-0.1l-0.1-0.1l0.1,0.1c0,0,0.1,0,0.1-0.1c0.2-0.2,0.5-0.3,0.7-0.4c0.5-0.3,1-0.6,1.5-1l0,0l0,0c0,0,0,0,0.1,0
	c0.1-0.1,0.2-0.1,0.3-0.2c0.7-0.4,1.4-0.8,2.2-1.2c0.7-0.4,1.5-0.8,2.2-1.1c0,0,0.1,0,0.1-0.1c0.2-0.1,0.4-0.2,0.7-0.3l0,0
	c0.2-0.1,0.4-0.2,0.6-0.3c0.1-0.1,0.2-0.1,0.3-0.1c0.3-0.1,0.6-0.3,1-0.4c1.4-0.6,2.8-1.2,4.4-1.7c2.4-0.8,4.9-1.5,7.7-2.1
	c0.3-0.1,0.5-0.1,0.8-0.2l0,0c0.4-0.1,0.8-0.1,1.2-0.2c0.8-0.1,1.6-0.3,2.5-0.4c2.5-0.3,5.2-0.5,8-0.5c0.8,0,1.6,0,2.4,0
	c0.3,0,0.7,0,1,0h0.2h0.1h0.2h0.5c0.6,0,1.2,0.1,1.9,0.2c0.4,0.1,0.7,0.1,1.1,0.1c0.1,0,0.1,0,0.2,0l0,0c1,0.1,2,0.3,3,0.5
	c1.4,0.2,2.8,0.6,4.2,0.9c0.7,0.2,1.4,0.4,2.1,0.6l0.5,0.2l0.5,0.2c0.3,0.1,0.7,0.2,1.1,0.4c1.6,0.6,3.3,1.2,4.9,2
	c0.9,0.4,1.7,0.8,2.6,1.3c0.3,0.1,0.6,0.3,0.8,0.5c0.1,0.1,0.3,0.2,0.4,0.2l0,0c2.6,1.4,5.1,3.1,7.5,5.1c0.3,0.2,0.6,0.5,0.8,0.7
	c1.6,1.3,3.1,2.7,4.6,4.2c0.3,0.3,0.5,0.5,0.8,0.8c0.1,0.1,0.3,0.3,0.4,0.4c2,2.2,3.9,4.7,5.6,7.3c0.4,0.6,0.7,1.2,1.1,1.8
	c0.5,0.9,1,1.8,1.5,2.7c0.3,0.5,0.6,1.1,0.8,1.6c0.7,1.5,1.4,3,2,4.6c0.6,1.5,1.1,3,1.5,4.5l0,0c0.1,0.4,0.2,0.8,0.3,1.2
	c0.2,0.8,0.4,1.7,0.6,2.5l0,0c0.2,1.1,0.4,2.1,0.6,3.2C200.4,285.8,200.6,288.6,200.6,291.3z"/>
</svg>
