<?xml version="1.0"?>
<svg xmlns="http://www.w3.org/2000/svg" xmlns:xlink="http://www.w3.org/1999/xlink" version="1.1" id="Capa_1" x="0px" y="0px" viewBox="0 0 508.1 508.1" style="enable-background:new 0 0 508.1 508.1;" xml:space="preserve" width="512px" height="512px" class=""><g><g>
	<g>
		<path d="M508,106.6H360.5v-41c0-22.6-18.4-41-41-41h-131c-22.6,0-41,18.4-41,41v41H0v106.5c0,17.5,6.2,33.6,16.4,46.2v183.2    c0,22.6,18.4,41,41,41h393.3c22.6,0,41-18.4,41-41V259.4c10.2-12.7,16.4-28.7,16.4-46.2V106.6H508z M163.9,65.6    c0-13.6,11-24.6,24.6-24.6h131.1c13.6,0,24.6,11,24.6,24.6v41H163.9V65.6z M475.3,442.5c-0.1,13.6-11.1,24.6-24.7,24.6H57.4    c-13.6,0-24.6-11-24.6-24.6V274.4c11.7,7.9,25.8,12.5,41,12.5H213v81.9h82v-81.9h139.3c15.2,0,29.2-4.6,41-12.5V442.5z M278.6,336    v16.4h-49.2V336H278.6z M229.4,319.6v-32.8h49.2v32.8H229.4z M434.2,270.5H295h-82H73.7c-31.6,0-57.4-25.7-57.4-57.4V123h131.1    h213h131.1v90.1h0.1C491.6,244.7,465.9,270.5,434.2,270.5z" data-original="#000000" class="active-path" data-old_color="#fff7f5" fill="#fff7f5"/>
	</g>
</g><g>
	<g>
		<rect x="245.8" y="147.6" width="16.4" height="16.4" data-original="#000000" class="active-path" data-old_color="#fff7f5" fill="#fff7f5"/>
	</g>
</g><g>
	<g>
		<rect x="213" y="147.6" width="16.4" height="16.4" data-original="#000000" class="active-path" data-old_color="#fff7f5" fill="#fff7f5"/>
	</g>
</g><g>
	<g>
		<rect x="278.6" y="147.6" width="16.4" height="16.4" data-original="#000000" class="active-path" data-old_color="#fff7f5" fill="#fff7f5"/>
	</g>
</g></g> </svg>
