<?xml version="1.0"?>
<svg xmlns="http://www.w3.org/2000/svg" xmlns:xlink="http://www.w3.org/1999/xlink" version="1.1" id="Capa_1" x="0px" y="0px" viewBox="0 0 508 508" style="enable-background:new 0 0 508 508;" xml:space="preserve" width="512px" height="512px"><g><g>
	<g>
		<path d="M421.2,312.2c47.9,0,86.8-37.9,86.8-84.5c0-34.6-21.8-65.6-54.6-78.4c-12.6-33.1-44.8-55.1-81.4-55.1    c-1.7,0-3.4,0.1-5.2,0.2C353.5,39.2,303.1,0,244.2,0C201,0,160.6,21.8,137.5,57.3c-0.5,0-1,0-1.5,0c-47.9,0-86.9,37.9-86.9,84.5    c0,3.2,0.2,6.3,0.6,9.5C19.7,165.2,0,195.1,0,227.6c0,46.6,39,84.5,86.9,84.5h159v64.7H90.1V426H57.4v82h81.9v-81.9h-32.8v-32.8    h139.3v32.8H213V508h82v-81.9h-32.8v-32.8h139.3v32.8h-32.8V508h81.9v-81.9h-32.8v-49.2H262.2v-64.7H421.2z M122.9,442.4v49.2    H73.7v-49.2H122.9z M434.3,442.4v49.2h-49.2v-49.2H434.3z M278.6,442.4v49.2h-49.2v-49.2H278.6z M86.9,295.8    c-38.9,0-70.5-30.6-70.5-68.2c0-28,18.2-53.5,45.3-63.6l6.6-2.4l-1.4-6.9c-0.9-4.4-1.3-8.7-1.3-13c0-37.6,31.6-68.1,70.5-68.1    c1.7,0,3.4,0.1,5.3,0.3l5,0.4l2.6-4.4c19.6-33,56.1-53.5,95.2-53.5c53.6,0,99.1,37.1,108.1,88.3l1.4,7.8l7.9-1.1    c4-0.6,7.3-0.8,10.5-0.8c30.9,0,57.9,19.1,67.2,47.6l1.3,3.9l3.9,1.3c28.3,9.5,47.3,35.4,47.3,64.3c0,37.6-31.6,68.1-70.5,68.1    H86.9z" data-original="#000000" class="active-path" data-old_color="#fff7f5" fill="#fff7f5"/>
	</g>
</g></g> </svg>
