<?xml version="1.0"?>
<svg xmlns="http://www.w3.org/2000/svg" xmlns:xlink="http://www.w3.org/1999/xlink" version="1.1" id="Layer_1" x="0px" y="0px" viewBox="0 0 360.329 360.329" style="enable-background:new 0 0 360.329 360.329;" xml:space="preserve" width="512px" height="512px"><g><g>
	<g>
		<polygon points="299.462,119.295 299.462,79.112 220.351,0 0,0 0,360.329 299.462,360.329 299.462,248.64 289.118,248.64     289.118,349.986 10.343,349.986 10.343,10.343 216.067,10.343 289.118,83.396 289.118,119.295   " data-original="#000000" class="active-path" data-old_color="#fff7f5" fill="#fff7f5"/>
	</g>
</g><g>
	<g>
		<polygon points="223.378,76.084 223.378,5.172 213.035,5.172 213.035,86.427 294.29,86.427 294.29,76.084   " data-original="#000000" class="active-path" data-old_color="#fff7f5" fill="#fff7f5"/>
	</g>
</g><g>
	<g>
		<rect x="35.607" y="266.29" width="91.3" height="10.343" data-original="#000000" class="active-path" data-old_color="#fff7f5" fill="#fff7f5"/>
	</g>
</g><g>
	<g>
		<rect x="35.607" y="311.94" width="136.95" height="10.343" data-original="#000000" class="active-path" data-old_color="#fff7f5" fill="#fff7f5"/>
	</g>
</g><g>
	<g>
		<path d="M152.167,114.126v139.686h208.162V114.126H152.167z M349.986,243.468H162.511V124.469h187.475V243.468z" data-original="#000000" class="active-path" data-old_color="#fff7f5" fill="#fff7f5"/>
	</g>
</g><g>
	<g>
		<polygon points="351.164,116.079 256.248,186.759 161.331,116.079 155.154,124.375 256.248,199.655 357.342,124.375   " data-original="#000000" class="active-path" data-old_color="#fff7f5" fill="#fff7f5"/>
	</g>
</g><g>
	<g>
		
			<rect x="314.042" y="160.123" transform="matrix(0.7166 -0.6975 0.6975 0.7166 -57.1871 282.6449)" width="10.344" height="103.141" data-original="#000000" class="active-path" data-old_color="#fff7f5" fill="#fff7f5"/>
	</g>
</g><g>
	<g>
		
			<rect x="141.738" y="206.507" transform="matrix(0.6975 -0.7166 0.7166 0.6975 -93.2107 202.5576)" width="103.141" height="10.344" data-original="#000000" class="active-path" data-old_color="#fff7f5" fill="#fff7f5"/>
	</g>
</g></g> </svg>
