<?xml version="1.0"?>
<svg xmlns="http://www.w3.org/2000/svg" xmlns:xlink="http://www.w3.org/1999/xlink" version="1.1" id="Layer_1" x="0px" y="0px" viewBox="0 0 360.33 360.33" style="enable-background:new 0 0 360.33 360.33;" xml:space="preserve" width="512px" height="512px"><g><g>
	<g>
		<path d="M79.11,0.001L0,79.113V269.03h360.329L360.33,0.001H79.11z M349.986,258.686H10.343V83.397l73.051-73.052h266.592V258.686    z" data-original="#000000" class="active-path" data-old_color="#fff7f5" fill="#fff7f5"/>
	</g>
</g><g>
	<g>
		<polygon points="76.084,5.173 76.084,76.085 5.172,76.085 5.172,86.428 86.427,86.428 86.427,5.173   " data-original="#000000" class="active-path" data-old_color="#fff7f5" fill="#fff7f5"/>
	</g>
</g><g>
	<g>
		<rect x="172.55" y="76.081" width="152.16" height="10.343" data-original="#000000" class="active-path" data-old_color="#fff7f5" fill="#fff7f5"/>
	</g>
</g><g>
	<g>
		<rect x="35.607" y="121.741" width="289.12" height="10.343" data-original="#000000" class="active-path" data-old_color="#fff7f5" fill="#fff7f5"/>
	</g>
</g><g>
	<g>
		<rect x="35.607" y="167.381" width="289.12" height="10.343" data-original="#000000" class="active-path" data-old_color="#fff7f5" fill="#fff7f5"/>
	</g>
</g><g>
	<g>
		<rect x="35.607" y="213.04" width="289.12" height="10.343" data-original="#000000" class="active-path" data-old_color="#fff7f5" fill="#fff7f5"/>
	</g>
</g><g>
	<g>
		<path d="M33.463,304.336L33.463,304.336L5.466,332.332l27.997,27.997h319.258v-55.994H33.463z M342.377,349.986H37.747    l-17.654-17.653l17.654-17.654h304.63V349.986z" data-original="#000000" class="active-path" data-old_color="#fff7f5" fill="#fff7f5"/>
	</g>
</g><g>
	<g>
		<rect x="281.51" y="309.511" width="10.343" height="45.647" data-original="#000000" class="active-path" data-old_color="#fff7f5" fill="#fff7f5"/>
	</g>
</g><g>
	<g>
		<rect x="53.26" y="309.511" width="10.343" height="45.647" data-original="#000000" class="active-path" data-old_color="#fff7f5" fill="#fff7f5"/>
	</g>
</g></g> </svg>
