<?xml version="1.0"?>
<svg xmlns="http://www.w3.org/2000/svg" xmlns:xlink="http://www.w3.org/1999/xlink" version="1.1" id="Layer_1" x="0px" y="0px" viewBox="0 0 360.329 360.329" style="enable-background:new 0 0 360.329 360.329;" xml:space="preserve" width="512px" height="512px" class=""><g><g>
	<g>
		<path d="M210.731,127.34c-8.282,7.93-19.138,12.297-30.566,12.297c-11.428,0-22.284-4.367-30.567-12.297l-8.748-8.375v136.447    c0,9.46,7.697,17.157,17.157,17.157h44.315c9.46,0,17.157-7.697,17.157-17.157V118.965L210.731,127.34z M209.136,255.413    L209.136,255.413c0,3.757-3.056,6.814-6.814,6.814h-44.315c-3.757,0-6.814-3.057-6.814-6.814V141.644    c8.621,5.426,18.603,8.336,28.972,8.336c10.367,0,20.351-2.91,28.971-8.336V255.413z" data-original="#000000" class="active-path" data-old_color="#fff7f5" fill="#fff7f5"/>
	</g>
</g><g>
	<g>
		<path d="M201.124,45.193l-7.162-2.987v47.005l-13.796,11.037l-13.797-11.037V42.206l-7.162,2.987    c-20.369,8.495-33.53,28.238-33.53,50.298c0,14.765,6.11,29.095,16.769,39.321c10.218,9.782,23.614,15.169,37.72,15.169    c14.106,0,27.502-5.387,37.723-15.172c10.655-10.221,16.766-24.552,16.766-39.317C234.654,73.43,221.492,53.687,201.124,45.193z     M210.731,127.339c-8.283,7.93-19.139,12.297-30.566,12.297s-22.283-4.367-30.563-12.293    c-8.632-8.281-13.583-19.891-13.583-31.853c0-15.132,7.644-28.919,20.005-36.968v35.66l24.14,19.313l24.14-19.313v-35.66    c12.361,8.049,20.005,21.836,20.005,36.968C224.31,107.452,219.36,119.062,210.731,127.339z" data-original="#000000" class="active-path" data-old_color="#fff7f5" fill="#fff7f5"/>
	</g>
</g><g>
	<g>
		<path d="M180.165,217.565c-9.46,0-17.156,7.697-17.156,17.157c0,9.46,7.696,17.156,17.156,17.156    c9.46,0,17.157-7.696,17.157-17.156S189.626,217.565,180.165,217.565z M180.165,241.535c-3.757,0-6.813-3.057-6.813-6.813    s3.057-6.814,6.813-6.814c3.757,0,6.814,3.057,6.814,6.814C186.979,238.479,183.922,241.535,180.165,241.535z" data-original="#000000" class="active-path" data-old_color="#fff7f5" fill="#fff7f5"/>
	</g>
</g><g>
	<g>
		<path d="M50.822,152.168H20.389C9.146,152.168,0,161.314,0,172.557v98.909c0,11.243,9.146,20.389,20.389,20.389h30.434    c11.242,0,20.388-9.147,20.389-20.389v-98.909C71.211,161.314,62.065,152.168,50.822,152.168z M60.868,271.466    c0,5.539-4.506,10.045-10.045,10.045H20.389c-5.539,0-10.045-4.507-10.045-10.045v-98.909c0-5.539,4.506-10.045,10.045-10.045    h30.434c5.539,0,10.045,4.507,10.045,10.045V271.466z" data-original="#000000" class="active-path" data-old_color="#fff7f5" fill="#fff7f5"/>
	</g>
</g><g>
	<g>
		<path d="M339.941,152.168h-30.434c-11.243,0-20.389,9.146-20.389,20.389v98.909c0,11.243,9.146,20.389,20.389,20.389h30.434    c11.243,0,20.388-9.147,20.388-20.389v-98.909C360.33,161.314,351.184,152.168,339.941,152.168z M349.986,271.466    c0,5.539-4.507,10.045-10.045,10.045h-30.434c-5.539,0-10.045-4.507-10.045-10.045v-98.909c0-5.539,4.507-10.045,10.045-10.045    h30.434c5.538,0,10.045,4.507,10.045,10.045V271.466z" data-original="#000000" class="active-path" data-old_color="#fff7f5" fill="#fff7f5"/>
	</g>
</g><g>
	<g>
		<path d="M286.041,43.855C257.76,15.575,220.159,0,180.164,0C140.17,0,102.569,15.575,74.289,43.855    c-28.28,28.281-43.855,65.881-43.855,105.876v7.609h10.343v-7.609c0-76.859,62.529-139.388,139.387-139.388    s139.388,62.529,139.388,139.388v7.609h10.343v-7.608C329.896,109.736,314.321,72.136,286.041,43.855z" data-original="#000000" class="active-path" data-old_color="#fff7f5" fill="#fff7f5"/>
	</g>
</g><g>
	<g>
		<path d="M180.165,304.336c-15.438,0-27.997,12.559-27.997,27.996c0,15.438,12.56,27.997,27.997,27.997    c15.437,0,27.997-12.559,27.997-27.996C208.162,316.895,195.603,304.336,180.165,304.336z M180.165,349.987    c-9.734,0-17.654-7.919-17.654-17.654c0-9.734,7.919-17.654,17.654-17.654s17.654,7.919,17.654,17.654    C197.819,342.067,189.9,349.987,180.165,349.987z" data-original="#000000" class="active-path" data-old_color="#fff7f5" fill="#fff7f5"/>
	</g>
</g><g>
	<g>
		<path d="M319.553,286.682L319.553,286.682c0,22.321-18.159,40.479-40.478,40.479h-75.951v10.343h75.951    c28.024,0,50.822-22.799,50.822-50.822H319.553z" data-original="#000000" class="active-path" data-old_color="#fff7f5" fill="#fff7f5"/>
	</g>
</g></g> </svg>
