<?xml version="1.0"?>
<svg xmlns="http://www.w3.org/2000/svg" xmlns:xlink="http://www.w3.org/1999/xlink" version="1.1" id="Capa_1" x="0px" y="0px" viewBox="0 0 508 508" style="enable-background:new 0 0 508 508;" xml:space="preserve" width="512px" height="512px"><g><g>
	<g>
		<path d="M352.65,248.6l132-132c25.3-25.3,25.3-66.6,0-91.9s-66.6-25.3-91.9,0l-132,132L104.05,0L7.95,114.8l147.3,147.3    L10.65,406.7l-2.2,2.2L1.35,508l99.1-7.2L247.25,354l153.9,154l105.5-105.5L352.65,248.6z M404.45,36.4    c9.1-9.1,21.3-14.2,34.2-14.2s25.1,5,34.2,14.2c9.1,9.1,14.2,21.3,14.2,34.2c0,12.9-5,25.1-14.2,34.2l-0.9,0.9l-68.5-68.5    L404.45,36.4z M151.65,235.1l-23.4-23.4l17.6-17.6l-11.7-11.7l-17.6,17.6l-29.3-29.3l11.7-11.7l-11.7-11.7L75.55,159l-23.4-23.4    l17.5-17.6l-11.7-11.7l-17.6,17.6l-10-10l74.7-89.3l143.9,143.9l-82,82l-3.6-3.6l11.7-11.7l-11.7-11.7L151.65,235.1z M93.05,484.7    l-73.8,5.3l5.3-73.8l4.5-4.5l68.5,68.5L93.05,484.7z M109.25,468.5L40.85,400l57.1-57.1l68.5,68.5L109.25,468.5z M178.05,399.7    l-68.5-68.5l109-109l53.9-53.9L391.85,49l28.4,28.4l-64.4,64.4l11.7,11.7l64.4-64.4l28.4,28.4L178.05,399.7z M401.05,484.5    l-9.2-9.2l11.7-11.7l-11.7-11.7l-11.7,11.7l-23.4-23.4l17.6-17.6l-11.7-11.7l-17.6,17.6l-29.3-29.3l11.7-11.7l-11.7-11.7    l-11.7,11.7l-23.5-23.5l17.6-17.6l-11.7-11.7l-17.6,17.6l-10-10l82-82l142.2,142.2L401.05,484.5z" data-original="#000000" class="active-path" data-old_color="#fff7f5" fill="#fff7f5"/>
	</g>
</g></g> </svg>
