<?xml version="1.0"?>
<svg xmlns="http://www.w3.org/2000/svg" xmlns:xlink="http://www.w3.org/1999/xlink" version="1.1" id="Layer_1" x="0px" y="0px" viewBox="0 0 360.329 360.329" style="enable-background:new 0 0 360.329 360.329;" xml:space="preserve" width="512px" height="512px"><g><g>
	<g>
		<path d="M0,0v185.336h253.812V0H0z M243.468,174.993H10.343V10.343h233.125V174.993z" data-original="#000000" class="active-path" data-old_color="#fff7f5" fill="#fff7f5"/>
	</g>
</g><g>
	<g>
		<rect x="91.3" y="180.16" width="10.343" height="38.04" data-original="#000000" class="active-path" data-old_color="#fff7f5" fill="#fff7f5"/>
	</g>
</g><g>
	<g>
		<rect x="152.16" y="180.16" width="10.343" height="38.04" data-original="#000000" class="active-path" data-old_color="#fff7f5" fill="#fff7f5"/>
	</g>
</g><g>
	<g>
		<rect x="66.04" y="213.04" width="121.74" height="10.343" data-original="#000000" class="active-path" data-old_color="#fff7f5" fill="#fff7f5"/>
	</g>
</g><g>
	<g>
		<rect x="5.172" y="144.56" width="243.47" height="10.343" data-original="#000000" class="active-path" data-old_color="#fff7f5" fill="#fff7f5"/>
	</g>
</g><g>
	<g>
		<path d="M243.468,205.426v154.903h116.861V205.426H243.468z M349.986,349.986h-96.175V215.77h96.175V349.986z" data-original="#000000" class="active-path" data-old_color="#fff7f5" fill="#fff7f5"/>
	</g>
</g><g>
	<g>
		<rect x="248.64" y="319.55" width="106.52" height="10.343" data-original="#000000" class="active-path" data-old_color="#fff7f5" fill="#fff7f5"/>
	</g>
</g><g>
	<g>
		<rect x="248.64" y="235.86" width="106.52" height="10.343" data-original="#000000" class="active-path" data-old_color="#fff7f5" fill="#fff7f5"/>
	</g>
</g><g>
	<g>
		<polygon points="262.011,60.867 262.011,71.21 317.706,71.21 317.706,159.186 328.05,159.186 328.05,60.867   " data-original="#000000" class="active-path" data-old_color="#fff7f5" fill="#fff7f5"/>
	</g>
</g><g>
	<g>
		<polygon points="351.5,123.248 322.878,151.872 294.255,123.248 286.941,130.563 322.878,166.5 358.815,130.563   " data-original="#000000" class="active-path" data-old_color="#fff7f5" fill="#fff7f5"/>
	</g>
</g><g>
	<g>
		<polygon points="42.623,327.161 42.623,241.032 32.279,241.032 32.279,337.504 204.836,337.504 204.836,327.161   " data-original="#000000" class="active-path" data-old_color="#fff7f5" fill="#fff7f5"/>
	</g>
</g><g>
	<g>
		<polygon points="37.451,233.718 1.515,269.655 8.828,276.969 37.451,248.346 66.075,276.969 73.388,269.655   " data-original="#000000" class="active-path" data-old_color="#fff7f5" fill="#fff7f5"/>
	</g>
</g></g> </svg>
