<?xml version="1.0"?>
<svg xmlns="http://www.w3.org/2000/svg" xmlns:xlink="http://www.w3.org/1999/xlink" version="1.1" id="Capa_1" x="0px" y="0px" viewBox="0 0 508 508" style="enable-background:new 0 0 508 508;" xml:space="preserve" width="512px" height="512px" class=""><g><g>
	<g>
		<path d="M508,254.05c0-60.1-21.3-118-60-163.8l0.1-0.1l-4.9-5.5C395.1,30.95,326.1,0.05,254,0.05s-141,30.8-189.1,84.6l-0.1,0.1    l-4.9,5.5l0.1,0.1c-38.7,45.7-60,103.6-60,163.7c0,60.1,21.3,118,60,163.7l-0.1,0.1l4.9,5.5c47.9,53.6,116.6,84.4,188.5,84.6    c0.3,0,0.5,0,0.8,0c0.4,0,0.8,0,1.2,0c71.7-0.4,140.1-31.1,187.9-84.6l0.1-0.1l4.9-5.5l-0.1-0.1    C486.7,372.05,508,314.15,508,254.05z M436.8,102.45c33.6,40.5,52.8,90.8,54.6,143.4h-57.9c-3.6-21.4-21-38.1-42.8-40.6    c-2.2-20.7-5.7-40.3-10.3-58.7C401,134.65,420,119.85,436.8,102.45z M417.9,254.05c0,18.1-14.7,32.8-32.8,32.8    c-18.1,0-32.8-14.7-32.8-32.8c0-18.1,14.7-32.8,32.8-32.8S417.9,235.95,417.9,254.05z M420.7,84.85c1,1,2.1,2.1,3.2,3.2    c0.7,0.7,1.4,1.5,2.1,2.2c-14.9,15.6-31.8,29-50.1,39.9c-14.1-46.5-36-83.6-62.3-106C353.7,34.55,390.8,55.45,420.7,84.85z     M262.2,17.05c41.5,5.6,78.7,52.8,98.9,121.2c-30.5,15.5-64.2,24.2-98.9,25.5V17.05z M262.2,180.05c36.1-1.2,71.3-10.1,103.2-25.7    c4,16.3,7,33.6,8.9,51.7c-19.3,4.4-34.3,20.1-37.6,39.8h-74.5V180.05z M262.2,262.35h74.5c3.3,19.7,18.3,35.4,37.7,39.7    c-2,18.1-5,35.5-9,51.8c-19.7-9.7-40.7-16.9-62.4-21.1c-1.5-22.8-18.6-41.4-40.8-45.1V262.35z M245.8,17.05v146.5    c-20.3-0.7-40.2-3.9-59.6-9.7c1.4-4.6,2.2-9.5,2.2-14.6c0.1-18.6-10.4-34.8-25.8-43.2C184.3,49.35,214,21.15,245.8,17.05z     M131.3,245.85c0.3-19.6,1.9-38.8,4.8-57.5c1,0.1,2.1,0.2,3.2,0.2c16.1,0,30.3-7.8,39.3-19.8c21.7,6.8,44.3,10.5,67.2,11.2v65.9    H131.3z M245.8,262.15v0.1v25.3c-22.2,3.7-39.3,22.3-40.8,45.1c-21.7,4.3-42.7,11.4-62.5,21.1c-6.7-28-10.7-59-11.3-91.6H245.8z     M106.5,139.35c0-18.1,14.8-32.8,32.8-32.8c18.1,0,32.8,14.7,32.8,32.8c0,18.1-14.7,32.8-32.8,32.8    C121.2,172.15,106.5,157.45,106.5,139.35z M84.2,88.05c1.1-1.1,2.1-2.2,3.2-3.2c29.9-29.4,66.9-50.3,107-60.7    c-18.1,15.5-34.2,38-47.3,66.7c-2.5-0.4-5.1-0.7-7.7-0.7c-15.3,0-28.9,7-38,18c-6.7-5.7-13.2-11.6-19.3-17.9    C82.8,89.55,83.5,88.75,84.2,88.05z M71.3,102.25c6.9,7.2,14.2,14,21.9,20.3c-1.9,5.2-3,10.9-3,16.8c0,20.3,12.3,37.7,29.9,45.2    c-3.1,19.9-4.8,40.4-5.1,61.3H16.6C18.4,193.15,37.6,142.75,71.3,102.25z M71.3,405.75c-33.7-40.5-52.9-90.9-54.7-143.5h98.3    c0.6,35.4,5.2,68.9,13,99.3C107.1,373.45,88.1,388.35,71.3,405.75z M87.3,423.15c-1.1-1-2.1-2-3.1-3.1c-0.7-0.7-1.4-1.5-2.1-2.2    c14.9-15.7,32-29,50.4-40c14.2,46.3,36.2,83.7,62.7,106.3C154.7,473.75,117.4,452.85,87.3,423.15z M245.8,491.05    c-42.6-5.4-79.3-52.9-99-121.2c18.9-9.5,39-16.5,59.9-20.8c5,18.2,20.3,32.1,39.1,35.3V491.05z M254,368.75    c-18.1,0-32.8-14.7-32.8-32.8s14.7-32.8,32.8-32.8c18.1,0,32.8,14.7,32.8,32.8S272.1,368.75,254,368.75z M262.2,491.05v-106.6    c18.9-3.2,34.1-17.1,39.1-35.3c20.8,4.2,40.9,11.2,59.7,20.8C340.9,438.25,303.8,485.55,262.2,491.05z M423.8,420.05    c-1,1-2,2.1-3.1,3.1c-29.9,29.5-66.9,50.4-107.1,60.8c26.3-22.5,48.1-59.4,62.2-105.9c18.3,11,35.2,24.2,50.1,39.8    C425.2,418.55,424.5,419.35,423.8,420.05z M436.7,405.75c-16.7-17.3-35.6-32.2-56.3-44.1c4.7-18.4,8.2-38.1,10.3-58.8    c21.7-2.5,39.2-19.2,42.8-40.6h57.9C489.6,314.95,470.4,365.25,436.7,405.75z" data-original="#000000" class="active-path" data-old_color="#fff7f5" fill="#fff7f5"/>
	</g>
</g></g> </svg>
